/* XPM */
static char *_37a14a5788c46b9abd2b95468f49872QrkKWwl8DH4jS7dL[] = {
/* columns rows colors chars-per-pixel */
"64 64 9 1 ",
"  c #002395",
". c #002294",
"X c #012495",
"o c #A4B1D9",
"O c white",
"+ c #F8B3B8",
"@ c #ED2939",
"# c #EC2838",
"$ c white",
/* pixels */
"                   .XoOOOOOOOOOOOOOOOOOOOO+@#@@@@@@@@@@@@@@@@@@@",
"                   .XoOOOOOOOOOOOOOOOOOOOO+@#@@@@@@@@@@@@@@@@@@@",
"                   .XoOOOOOOOOOOOOOOOOOOOO+@#@@@@@@@@@@@@@@@@@@@",
"                   .XoOOOOOOOOOOOOOOOOOOOO+@#@@@@@@@@@@@@@@@@@@@",
"                   .XoOOOOOOOOOOOOOOOOOOOO+@#@@@@@@@@@@@@@@@@@@@",
"                   .XoOOOOOOOOOOOOOOOOOOOO+@#@@@@@@@@@@@@@@@@@@@",
"                   .XoOOOOOOOOOOOOOOOOOOOO+@#@@@@@@@@@@@@@@@@@@@",
"                   .XoOOOOOOOOOOOOOOOOOOOO+@#@@@@@@@@@@@@@@@@@@@",
"                   .XoOOOOOOOOOOOOOOOOOOOO+@#@@@@@@@@@@@@@@@@@@@",
"                   .XoOOOOOOOOOOOOOOOOOOOO+@#@@@@@@@@@@@@@@@@@@@",
"                   .XoOOOOOOOOOOOOOOOOOOOO+@#@@@@@@@@@@@@@@@@@@@",
"                   .XoOOOOOOOOOOOOOOOOOOOO+@#@@@@@@@@@@@@@@@@@@@",
"                   .XoOOOOOOOOOOOOOOOOOOOO+@#@@@@@@@@@@@@@@@@@@@",
"                   .XoOOOOOOOOOOOOOOOOOOOO+@#@@@@@@@@@@@@@@@@@@@",
"                   .XoOOOOOOOOOOOOOOOOOOOO+@#@@@@@@@@@@@@@@@@@@@",
"                   .XoOOOOOOOOOOOOOOOOOOOO+@#@@@@@@@@@@@@@@@@@@@",
"                   .XoOOOOOOOOOOOOOOOOOOOO+@#@@@@@@@@@@@@@@@@@@@",
"                   .XoOOOOOOOOOOOOOOOOOOOO+@#@@@@@@@@@@@@@@@@@@@",
"                   .XoOOOOOOOOOOOOOOOOOOOO+@#@@@@@@@@@@@@@@@@@@@",
"                   .XoOOOOOOOOOOOOOOOOOOOO+@#@@@@@@@@@@@@@@@@@@@",
"                   .XoOOOOOOOOOOOOOOOOOOOO+@#@@@@@@@@@@@@@@@@@@@",
"                   .XoOOOOOOOOOOOOOOOOOOOO+@#@@@@@@@@@@@@@@@@@@@",
"                   .XoOOOOOOOOOOOOOOOOOOOO+@#@@@@@@@@@@@@@@@@@@@",
"                   .XoOOOOOOOOOOOOOOOOOOOO+@#@@@@@@@@@@@@@@@@@@@",
"                   .XoOOOOOOOOOOOOOOOOOOOO+@#@@@@@@@@@@@@@@@@@@@",
"                   .XoOOOOOOOOOOOOOOOOOOOO+@#@@@@@@@@@@@@@@@@@@@",
"                   .XoOOOOOOOOOOOOOOOOOOOO+@#@@@@@@@@@@@@@@@@@@@",
"                   .XoOOOOOOOOOOOOOOOOOOOO+@#@@@@@@@@@@@@@@@@@@@",
"                   .XoOOOOOOOOOOOOOOOOOOOO+@#@@@@@@@@@@@@@@@@@@@",
"                   .XoOOOOOOOOOOOOOOOOOOOO+@#@@@@@@@@@@@@@@@@@@@",
"                   .XoOOOOOOOOOOOOOOOOOOOO+@#@@@@@@@@@@@@@@@@@@@",
"                   .XoOOOOOOOOOOOOOOOOOOOO+@#@@@@@@@@@@@@@@@@@@@",
"                   .XoOOOOOOOOOOOOOOOOOOOO+@#@@@@@@@@@@@@@@@@@@@",
"                   .XoOOOOOOOOOOOOOOOOOOOO+@#@@@@@@@@@@@@@@@@@@@",
"                   .XoOOOOOOOOOOOOOOOOOOOO+@#@@@@@@@@@@@@@@@@@@@",
"                   .XoOOOOOOOOOOOOOOOOOOOO+@#@@@@@@@@@@@@@@@@@@@",
"                   .XoOOOOOOOOOOOOOOOOOOOO+@#@@@@@@@@@@@@@@@@@@@",
"                   .XoOOOOOOOOOOOOOOOOOOOO+@#@@@@@@@@@@@@@@@@@@@",
"                   .XoOOOOOOOOOOOOOOOOOOOO+@#@@@@@@@@@@@@@@@@@@@",
"                   .XoOOOOOOOOOOOOOOOOOOOO+@#@@@@@@@@@@@@@@@@@@@",
"                   .XoOOOOOOOOOOOOOOOOOOOO+@#@@@@@@@@@@@@@@@@@@@",
"                   .XoOOOOOOOOOOOOOOOOOOOO+@#@@@@@@@@@@@@@@@@@@@",
"                   .XoOOOOOOOOOOOOOOOOOOOO+@#@@@@@@@@@@@@@@@@@@@",
"                   .XoOOOOOOOOOOOOOOOOOOOO+@#@@@@@@@@@@@@@@@@@@@",
"                   .XoOOOOOOOOOOOOOOOOOOOO+@#@@@@@@@@@@@@@@@@@@@",
"                   .XoOOOOOOOOOOOOOOOOOOOO+@#@@@@@@@@@@@@@@@@@@@",
"                   .XoOOOOOOOOOOOOOOOOOOOO+@#@@@@@@@@@@@@@@@@@@@",
"                   .XoOOOOOOOOOOOOOOOOOOOO+@#@@@@@@@@@@@@@@@@@@@",
"                   .XoOOOOOOOOOOOOOOOOOOOO+@#@@@@@@@@@@@@@@@@@@@",
"                   .XoOOOOOOOOOOOOOOOOOOOO+@#@@@@@@@@@@@@@@@@@@@",
"                   .XoOOOOOOOOOOOOOOOOOOOO+@#@@@@@@@@@@@@@@@@@@@",
"                   .XoOOOOOOOOOOOOOOOOOOOO+@#@@@@@@@@@@@@@@@@@@@",
"                   .XoOOOOOOOOOOOOOOOOOOOO+@#@@@@@@@@@@@@@@@@@@@",
"                   .XoOOOOOOOOOOOOOOOOOOOO+@#@@@@@@@@@@@@@@@@@@@",
"                   .XoOOOOOOOOOOOOOOOOOOOO+@#@@@@@@@@@@@@@@@@@@@",
"                   .XoOOOOOOOOOOOOOOOOOOOO+@#@@@@@@@@@@@@@@@@@@@",
"                   .XoOOOOOOOOOOOOOOOOOOOO+@#@@@@@@@@@@@@@@@@@@@",
"                   .XoOOOOOOOOOOOOOOOOOOOO+@#@@@@@@@@@@@@@@@@@@@",
"                   .XoOOOOOOOOOOOOOOOOOOOO+@#@@@@@@@@@@@@@@@@@@@",
"                   .XoOOOOOOOOOOOOOOOOOOOO+@#@@@@@@@@@@@@@@@@@@@",
"                   .XoOOOOOOOOOOOOOOOOOOOO+@#@@@@@@@@@@@@@@@@@@@",
"                   .XoOOOOOOOOOOOOOOOOOOOO+@#@@@@@@@@@@@@@@@@@@@",
"                   .XoOOOOOOOOOOOOOOOOOOOO+@#@@@@@@@@@@@@@@@@@@@",
"                   .XoOOOOOOOOOOOOOOOOOOOO+@#@@@@@@@@@@@@@@@@@@@"
};
