/* XPM */
static char *result[] = {
/* columns rows colors chars-per-pixel */
"64 64 232 2 ",
"   c #7C5B04",
".  c #795503",
"X  c #735A15",
"o  c #7E6004",
"O  c #6D5923",
"+  c #715E2E",
"@  c #776428",
"#  c #7A6734",
"$  c #855D02",
"%  c #8A5F01",
"&  c #8C6101",
"*  c #896707",
"=  c #936C05",
"-  c #9B6B06",
";  c #9B6A09",
":  c #966A0B",
">  c #9C7A0B",
",  c #987606",
"<  c #896812",
"1  c #94740F",
"2  c #A6720D",
"3  c #AA730E",
"4  c #A47A0C",
"5  c #AD7A0E",
"6  c #A47D07",
"7  c #B17B0F",
"8  c #A67410",
"9  c #A97511",
"0  c #A47C10",
"q  c #AC7B12",
"w  c #AC7A1A",
"e  c #B17D10",
"r  c #A26B08",
"t  c #877534",
"y  c #95762A",
"u  c #AE7E22",
"i  c #A27B2F",
"p  c #8F7A4B",
"a  c #9D830D",
"s  c #9E8914",
"d  c #AC850B",
"f  c #AD8A0B",
"g  c #A3850B",
"h  c #B1820D",
"j  c #B98E0A",
"k  c #B48B0A",
"l  c #BA920A",
"z  c #B6960E",
"x  c #AD8212",
"c  c #A38C13",
"v  c #A38D1A",
"b  c #A68613",
"n  c #B48313",
"m  c #B98613",
"M  c #B58A14",
"N  c #BB8B15",
"B  c #B78A19",
"V  c #BA8D19",
"C  c #B1831C",
"Z  c #A99316",
"A  c #BE9216",
"S  c #B49B14",
"D  c #BC9B15",
"F  c #BD9319",
"G  c #BE9A1A",
"H  c #B49515",
"J  c #AC900E",
"K  c #BBA315",
"L  c #93823A",
"P  c #998726",
"I  c #B48527",
"U  c #AB9627",
"Y  c #B89A25",
"T  c #AA983B",
"R  c #A99738",
"E  c #B79A35",
"W  c #B18533",
"Q  c #BBA535",
"!  c #B8A32D",
"~  c #C39A0C",
"^  c #C1960D",
"/  c #C08F16",
"(  c #C19316",
")  c #C29B15",
"_  c #C29518",
"`  c #C59B1A",
"'  c #C99D1B",
"]  c #CA9E16",
"[  c #C7A30E",
"{  c #C4A315",
"}  c #CBA416",
"|  c #C6A21A",
" . c #CCA31C",
".. c #CEA91C",
"X. c #CCAA16",
"o. c #D0A61C",
"O. c #D3AB1D",
"+. c #DBAE1F",
"@. c #CAB117",
"#. c #DAB31D",
"$. c #DAB818",
"%. c #D1A70B",
"&. c #E3BB1F",
"*. c #CC9C2D",
"=. c #C89B32",
"-. c #D19F29",
";. c #CCA325",
":. c #CCAB25",
">. c #C6A625",
",. c #D4AC21",
"<. c #D8AF21",
"1. c #D5A52D",
"2. c #CDB222",
"3. c #DBB422",
"4. c #DEB924",
"5. c #D8B827",
"6. c #C4AD39",
"7. c #CBA837",
"8. c #D8A931",
"9. c #CEB331",
"0. c #CBB33C",
"q. c #D7B838",
"w. c #E3BC25",
"e. c #E1B329",
"r. c #E5B835",
"t. c #F1BE3B",
"y. c #DEC11E",
"u. c #E8C518",
"i. c #EAD31C",
"p. c #DFC124",
"a. c #DEC039",
"s. c #E6C225",
"d. c #E9C326",
"f. c #EDCA24",
"g. c #E6C228",
"h. c #EAC528",
"j. c #EECA2A",
"k. c #E1CB28",
"l. c #F2CC2A",
"z. c #EAD429",
"x. c #F6D22B",
"c. c #FDDC2E",
"v. c #F7D82A",
"b. c #E7C738",
"n. c #EBDC33",
"m. c #F4D637",
"M. c #F5C43E",
"N. c #F7E729",
"B. c #F8F12A",
"V. c #EEE237",
"C. c #FDE332",
"Z. c #FEEC34",
"A. c #FCE63F",
"S. c #FDF335",
"D. c #FEFB3A",
"F. c #F9F239",
"G. c #EDE127",
"H. c #97875D",
"J. c #9F9054",
"K. c #A49442",
"L. c #A89845",
"P. c #BD964C",
"I. c #BB9854",
"U. c #A7974E",
"Y. c #BAA957",
"T. c #B4A041",
"R. c #A79A7C",
"E. c #BBAC67",
"W. c #C29E5A",
"Q. c #C09D4F",
"!. c #C8A445",
"~. c #CCB44D",
"^. c #C5A356",
"/. c #D8BA53",
"(. c #D7B749",
"). c #E2BC50",
"_. c #D8BC69",
"`. c #CBAE76",
"'. c #D7BD7E",
"]. c #CBAD6C",
"[. c #DCC25D",
"{. c #FAC843",
"}. c #FBD645",
"|. c #EED64F",
" X c #F8E748",
".X c #FCF748",
"XX c #FCF558",
"oX c #F8E057",
"OX c #DDC276",
"+X c #D8C06E",
"@X c #F5D670",
"#X c #FCEB64",
"$X c #FBF565",
"%X c #FAED79",
"&X c #B6AB95",
"*X c #C7B885",
"=X c #D1B887",
"-X c #C6BDAD",
";X c #D7C589",
":X c #DDC997",
">X c #E2CD98",
",X c #E8D696",
"<X c #F8ED9E",
"1X c #FDF69F",
"2X c #DBCAA5",
"3X c #DECDAC",
"4X c #D5CDA6",
"5X c #DFD3A9",
"6X c #D3CCB6",
"7X c #E2D4AC",
"8X c #E4D8B7",
"9X c #FBF3B3",
"0X c #F6EAAB",
"qX c #DFDACA",
"wX c #D3CCC0",
"eX c #E5DBC5",
"rX c #E0DCD4",
"tX c #EBE3CE",
"yX c #E6E1CB",
"uX c #EBE4D2",
"iX c #EAE6DA",
"pX c #E8E5DC",
"aX c #F1ECDB",
"sX c #FBF6D8",
"dX c #EDEBE8",
"fX c #F1EDE4",
"gX c #F0EFEC",
"hX c #F4F2EC",
"jX c #F7F7F7",
"kX c #F7F7F8",
"lX c #F7F8F9",
"zX c #F8F8FA",
/* pixels */
"jXjXjXjXjXjXkXjXjXjXjXjXjXjXjXkXkXjXjXjXjXjXjXjXjXkXjXjXjXjXjXjXjXjXjXjXjXjXjXjXjXjXjXjXjXjXjXjXjXjXjXjXjXjXjXjXjXjXjXjXjXjXzXjX",
"jXjXjXjXjXjXjXjXjXjXjXjXjXjXjXjXjXjXjXjXjXjXjXjXjXjXjXjXjXjXjXjXjXjXjXjXjXjXjXjXjXjXjXjXjXjXjXjXjXjXjXjXjXjXjXjXjXjXjXjXjXjXjXjX",
"jXjXjXjXjXjXjXjXjXjXjXjXjXjXjXjXjXjXjXjXjXjXjXjXjXjXjXjXjXjXjXjXjXjXjXjXjXjXjXjXjXjXjXjXjXjXjXjXjXjXjXjXjXjXjXjXjXjXjXjXjXjXjXjX",
"jXjXjXkXjXjXjXkXjXjXkXjXjXjXjXjXjXjXjXjXjXkXjXjXkXjXjXjXjXjXjXjXjXjXjXjXjXjXkXjXjXjXjXjXjXjXjXjXjXjXjXjXjXjXjXjXjXjXjXjXjXjXjXjX",
"jXjXjXjXjXjXjXjXjXjXjXjXjXjXjXjXjXjXjXjXjXjXjXjXkXkXkXhXgXfXhXhXjXkXkXjXkXjXjXjXjXjXjXjXjXjXjXjXjXjXjXjXjXjXjXjXjXjXjXjXjXjXjXjX",
"jXjXjXjXkXjXjXjXkXjXjXjXjXkXjXjXjXjXjXjXjXjXjXjXuX>X+X/.(.(./._.OX:X7XeXuXfXhXjXjXjXjXjXjXjXjXjXjXjXjXjXjXjXjXjXjXjXjXjXjXjXjXjX",
"jXkXjXjXjXjXjXjXjXjXjXjXkXjXjXjXjXjXjXjXjXhX8X_.7.,.O.3.3.w.w.s.g.4.;.=.!.^.].>XuXjXkXjXjXjXjXjXjXjXjXjXjXjXjXjXjXjXjXjXjXjXjXjX",
"jXjXjXjXjXjXjXjXjXjXjXjXjXjXjXjXjXjXjXkXuX_.>.'  .o.,.<.3.3.w.s.g.j.j.4.,.1.=.=.!.'.tXjXjXjXjXjXjXjXjXjXjXjXjXjXjXjXjXzXjXjXjXjX",
"jXjXjXjXjXjXzXjXjXjXjXjXjXkXjXjXjXkXjX>X=._ ` '  .;.o.,.3.3.4.w.g.h.j.l.j.s.e.1.=.*.!.>XhXzXzXjXjXjXjXjXjXjXjXjXjXjXjXjXjXjXjXjX",
"jXjXjXjXjXjXjXjXjXjXjXjXjXjXjXjXjXgX;XY N *.` ` |  .:.,.,.3.3.w.w.h.h.l.x.m.v.j.8.1.-.-._.aXzXjXjXjXjXjXjXjXjXzXjXjXjXjXjXjXjXjX",
"jXjXjXjXjXjXjXjXjXkXjXjXjXjXjXjXjX'.V V A F ` ` ' | -.` ;.,.3.e.w.g.g.h.j.l.c.F.c.M.e.8.1.).aXkXjXjXjXjXjXjXjXjXjXjXjXjXjXjXjXjX",
"jXjXjXjXjXjXjXjXjXjXjXjXjXjXjXjX;XV V V F F _ M 0 : & < : > x ` 3.e.w.h.h.j.l.c.D.A.M.{.t.t.@XhXjXjXjXjXjXjXjXjXjXjXjXzXjXjXjXjX",
"jXzXjXjXkXjXjXjXjXjXjXjXjXjXkX7XI M N V F M 1 * . $ > F ,.4.4.5.:.,.4.s.g.h.j.l.C..X X}.}.{.{.@XhXjXjXjXjXjXjXjXjXjXjXjXjXzXjXjX",
"jXjXjXjXjXjXjXjXjXjXjXjXjXjXtXE n C N B x =     0 :.g.x.c.C.Z.D.D.V.5.3.s.g.h.l.j..X.X X{.{.{.{.,XjXjXjXjXjXjXjXzXjXjXjXjXjXjXjX",
"jXjXjXjXjXjXjXjXjXkXjXjXkXhX].7 n B M b ,   * H 3.w.h.l.x.c.Z.Z.S.D.D.n.4.w.h.h.j.x.$X#Xm.b.r.r.).0XjXjXjXjXjXjXjXjXjXjXjXjXjXjX",
"jXjXjXjXjXjXjXjXjXjXjXjXzX7XC n C n b >   * F ;.,.w.g.j.x.c.C.Z.S.D.D.D.n.w.w.g.s.j. X1XoXM.r.q.8.[.fXjXjXjXjXjXjXjXjXjXjXjXjXjX",
"jXjXjXzXjXjXjXjXjXjXjXjXhXQ.q x n x > o * B G | ,.;._ G F H _ z.Z.S.S.D.D.z.w.w.g.g.j.1X9X}.b.q.q.q.,XkXjXjXjXjXjXjXjXjXjXjXjXjX",
"jXjXjXjXjXjXjXjXjXjXjXjX3Xq q x x b * * b B F ` | > . . . . . ;.C.Z.Z.S.S.F.s.w.w.g.g.|.sX#Xm.b.q.q.[.aXjXjXjXjXjXjXjXjXjXjXkXjX",
"jXjXjXjXjXjXjXjXjXjXjXjX^.3 q x b ,   > M B F F ` g   .   $ % _ C.c.c.C.Z.Z.v.w.w.w.g.h.9X1Xn.a.q.9.9.>XjXjXjXjXjXjXjXkXjXjXjXjX",
"jXjXjXjXjXjXjXjXjXjXjXyXI 9 q x > o * b x C V V ` d $ $ & = : ' c.c.c.C.C.C.C.d.4.w.g.g.@XsX}.g.2.>.>.~.fXkXjXjXjXjXjXjXjXjXjXjX",
"jXjXjXjXjXjXjXjXjXjXkX=X3 3 5 g 1 * 0 0 q n B V _ f $ $ % - ; ` l.x.c.c.c.c.c.l.3.4.w.w.b.sX@Xs.3.:.>.>.7XkXjXjXjXjXjXjXjXjXkXjX",
"jXjXjXjXjXjXjXjXjXkXhXP.3 q x J * = 9 9 q C n B _ f & $ & - ; ` f.f.l.x.x.c.c.l.w.<.3.4.4.<X1Xj.$.O.| | _.jXjXjXjXjXjXjXjXjXjXjX",
"jXjXjXjXjXjXjXjXkXkXrXC 3 q k J * , 0 9 q e B B A d & $ & - - ` w.j.h.l.x.l.x.x.w.<.<.3.#.oX<Xm.w.O.X.` 6.fXkXjXjXkXjXjXjXjXjXjX",
"jXjXjXjXjXzXjXjXjXkX2X9 9 5 J a = g 9 8 q q x n A f $ & & - - ` w.w.w.w.h.j.l.l.h.<.<.3.$.k.1Xm.u.O...| >.8XkXjXzXjXjXkXjXjXjXjX",
"jXjXjXjXkXjXjXjXjXjX`.2 9 5 J = , 4 2 2 9 q e C A f % % & - - _ w.w.w.w.d.h.h.h.d.3.O.<.<.w.$X Xs.#.X. .{ >XlXjXjXjXjXjXjXjXjXjX",
"jXjXjXjXjXjXjXjXjXjXP.2 9 d a = > 4 2 2 9 q q n N f % & & - ; _ #.e.3.w.w.w.w.d.w.3.o.,.,.3. X Xs.#.O. .{ +XjXjXjXjXjXjXjXjXjXjX",
"jXjXkXjXjXjXjXjXjXdXW 2 2 d , = > 2 2 9 8 9 q e N d % % & - ; A +.<.3.3.e.w.w.w.w.3.o.O.O.,.|.XXf.$.#.O.X./.hXlXjXjXjXjXjXzXjXjX",
"jXjXjXjXjXjXjXjXjXuXI 3 4 f , = 4 2 2 8 8 8 q q N k % & & - - N o.o.,.<.#.3.4.w.w.3.;.o.o.o.b.$Xj.w.#.O.o.0.aXlXjXjXjXjXjXjXjXjX",
"jXjXjXjXjXkXjXjXkXeXw 2 8 j , = 4 2 2 2 2 8 q e M f % & & - - N  .o. .,.O.<.3.3.3.3. . .....a.$Xs.$.O.o.} ;.tXzXjXjXjXjXjXjXjXjX",
"jXjXjXjXjXjXkXjXkX8X9 2 5 ) 6 , 6 2 2 2 8 8 9 9 j f % & & - - M ' ' ' ,.o.O.O.,.O.+. .' |  .q.XXs.@.} } D *.8XzXzXjXjXjXjXjXjXjX",
"jXjXjXjXjXjXjXjXkX3X8 8 q $.g 6 d 2 2 2 2 8 8 9 M k % % & - - M ` ` ' |  .o.o.O.,.O.| '  .' 5..Xs.X.} ) D D 7XzXjXjXjXjXjXjXjXjX",
"kXjXjXjXjXjXjXjXkX2X8 2 h i.k d h 3 2 2 8 8 8 9 h d % & & - - m _ _ _ ' '  . .o.o.o.' ' ' ' O.F.y.X.{ ) ) D 7XzXjXjXjXjXjXjXjXjX",
"jXjXjXjXjXjXjXjXzX2X8 2 h G.z l m 8 2 2 2 3 8 9 h d % & % - - n _ _ _ _ ` ' '  . .o.' ' ' ' O.B.u.X.{ ) D D 5XzXkXkXjXjXjXjXjXjX",
"jXjXjXjXjXjXzXjXzX3X8 8 n V.K l j 8 8 2 2 3 3 8 M d & & & = - n V F _ _ _ _ ' ' ' ' _ ` ' _ O.B.$.X.} ) ) ) 7XkXjXkXjXjXjXjXjXkX",
"jXjXjXjXjXjXjXjXzX8X8 8 5 V.@.[ ^ 3 2 2 8 2 3 3 h k & % & - ; n N N V ( _ _ _ ` ' ' _ _ _ ` O.N.$.} } | ) G 8XzXjXjXjXjXjXjXjXjX",
"jXjXjXjXjXjXjXjXkXeXw 8 q n.@.l ~ 5 3 2 8 2 2 3 h d % & & - - 5 N N N / / / _ _ _ _ _ _ _ _ O.i.O.| K D S Y yXlXjXjXjXjXjXjXjXjX",
"jXzXjXjXkXjXjXjXkXuXu 2 9 p.p.l ^ 7 2 2 2 2 3 2 h d % % & - - 5 m m m N N V / _ _ _ ( _ _ _ [ u.{ K K S J E iXlXjXjXjXjXjXkXjXjX",
"jXjXjXjXjXjXjXjXkXdXW 2 2 $.k.f ~ 7 3 2 2 2 2 3 h d % & & - - 3 m m m m N N / / ( ( A _ _ A X.@.K S Z J s Q fXlXjXjXjXjXjXjXjXjX",
"jXjXjXjXjXjXkXkXkXhXI.2 2 | i.k ( h 3 2 2 2 3 3 7 d % & & - r 3 n n m m N m N / / N A A A _ [ K Z J c c a Y.jXjXzXjXjXjXjXjXjXjX",
"jXjXjXjXjXjXkXkXkXzX`.2 2 M i.l l / 3 2 2 2 3 3 7 d % & & - - 3 n n n m m m N m N N V A A _ K S Z c c s s *XzXlXjXjXjXjXkXjXjXjX",
"jXjXjXjXzXjXjXjXjXjX2X3 3 3 s.[ l ] 7 3 3 3 3 3 5 d & % & - - 3 e n n n m m m m N N N V A A S S Z c s s s 5XjXjXjXjXjXjXjXjXjXzX",
"jXjXjXjXjXjXjXjXkXkXtXu 2 3 9.p.j o./ 7 3 3 r 3 5 d & % & - - 3 e e n n n n n m m N N / N A K J Z c c s R iXjXjXjXjXjXjXjXjXjXjX",
"jXjXjXjXjXjXjXjXkXjXgXQ.r 3 B j.~ ~ O.e 3 3 3 3 5 d & % & - - 3 e e e e n n n n m N m N V D K Z Z v v v E.jXjXjXjXjXjXjXjXjXjXjX",
"jXjXjXjXjXjXjXjXkXkXkX=X3 3 3 5.$.~ &.] 7 3 3 3 3 d & & & - - 3 e e e e e e n n m m N N F K K Y Y U U U 4XjXjXjXjXjXjXjXjXjXjXjX",
"jXjXjXjXjXjXjXjXjXjXzXeXw 3 3 ( u.%.&.&./ 7 3 3 3 d & & & r r 3 e e q q 7 e e m m m m m _ X.9.Q Q Q ! Y.aXjXjXjXjXjXjXjXjXjXjXjX",
"jXjXjXjXjXjXjXjXjXjXjXjXW.r 3 3 &.&.%.f.+.e 7 7 5 j = & - 7 7 3 9 3 7 7 7 7 e e m m m m { 2.0.0.0.0.9.;XjXjXjXjXjXjXjXjXjXjXjXjX",
"jXjXjXjXjXjXjXjXjXjXjXzX3Xw 3 3 ^ u.u.&.w.+.e 7 7 ( 4 - 6 ^ ^ 7 3 3 3 7 7 7 e m m m m N @.9.0.0.0.0.~.tXzXjXjXjXjXjXjXjXjXzXjXjX",
"jXjXjXjXjXzXjXjXjXjXjXjXfXQ.3 3 3 ] u.i.l.w.' e 7 7 m m h m h 3 3 3 3 9 3 e m m m m m H ! 9.6.6.Q Q ;XjXjXjXjXjXjXjXjXjXjXjXjXjX",
"jXjXjXjXjXjXjXjXjXjXjXjXzX3Xw 3 3 3 -.&.i.v.w.] e 7 3 3 3 3 3 3 2 2 3 3 3 n n n n m J S ! Q Q T R Y.iXjXjXjXjXjXjXjXjXjXjXjXjXjX",
"jXjXjXjXjXjXjXjXjXzXjXjXjXhXW.2 3 3 7 ] &.N.B.u.( e 7 3 3 3 3 3 3 2 3 5 n n n n n n c U T T R R T 4XjXjXjXjXjXjXjXjXjXjXjXjXjXjX",
"jXjXjXzXjXjXjXjXjXjXjXjXjXzXuXW 3 3 3 7 ~ &.G.Z.v.o.m 7 3 3 3 3 3 3 e n n n n n n x v R T T K.K.E.hXjXjXjXjXjXjXjXjXlXjXjXjXjXjX",
"jXjXjXjXjXjXjXjXjXjXjXjXjXzXzX2Xw 3 3 3 3 / %.f.N.N.l.%.( m 7 e e e n e h n n n x v R L.L.L.K.E.hXjXjXjXjXjXjXjXjXjXjXjXlXjXjXjX",
"jXjXjXjXjXjXjXjXjXjXjXjXjXjXjXjX=X3 3 3 3 3 7 / O.&.u.j.&.o.] m m e e m n n n q v U K.K.K.K.U.uXlXlXjXjXjXjXjXjXjXjXlXjXjXjXjXjX",
"jXjXjXjXjXjXjXjXjXjXjXjXjXjXjXjXhX`.3 3 3 3 3 3 7 h m m m m e e 7 e e e e e q b P L K.t t J.rXzXlXlXjXjXjXjXjXjXjXjXjXjXjXjXjXjX",
"jXjXjXjXjXjXjXjXjXjXjXjXjXjXjXjXkXhX`.w 3 3 3 7 7 7 3 7 7 7 7 e e e e e d q 1 y t t # # H.qXlXjXlXjXjXjXjXjXjXjXjXjXjXjXjXjXjXjX",
"jXjXjXjXzXjXjXjXjXjXjXjXjXjXjXjXjXkXjX2Xu 3 3 7 3 7 7 7 7 7 7 7 e e e e 2 < @ @ @ @ # R.pXkXjXjXlXjXjXjXjXlXjXjXjXjXjXjXjXjXjXjX",
"jXzXjXjXjXjXjXjXjXjXjXjXjXjXjXjXjXjXjXjXeXW.7 3 3 7 7 7 7 e e e e e 8 < X O O O @ H.6XgXlXlXjXjXjXjXjXjXjXjXjXjXjXjXlXjXjXjXjXjX",
"jXjXjXjXjXjXjXjXjXjXjXjXjXjXjXjXjXjXjXjXkXgX-XW.u 3 3 w 7 7 7 3 r < X O + # p &X6XhXlXlXlXlXjXjXlXjXjXjXjXjXjXlXjXjXjXjXjXjXjXjX",
"jXjXjXjXjXjXjXjXjXjXjXjXjXjXjXjXjXjXjXjXkXkXkXgXeX*XI.i i y y p H.R.&X-XwXrXdXgXjXjXjXjXlXjXjXjXjXjXjXjXjXjXjXjXjXjXjXjXjXjXjXjX",
"jXjXjXjXjXjXjXzXjXjXjXjXjXjXjXjXjXjXjXjXkXjXjXkXkXkXhXdXpXrXpXdXhXkXkXzXkXkXkXkXjXjXjXjXjXjXjXjXjXjXjXjXjXjXjXjXjXjXjXjXjXjXjXjX",
"jXjXjXjXjXjXjXjXjXjXjXjXjXjXjXjXjXjXjXkXjXjXjXjXkXkXkXkXzXkXjXjXjXjXjXjXkXkXkXkXlXjXjXjXjXjXjXjXjXjXjXjXjXjXjXjXjXjXjXjXjXjXjXlX",
"jXjXjXjXjXjXjXjXjXjXjXjXjXjXjXjXjXjXjXjXjXjXjXjXkXkXjXjXjXjXjXjXjXjXjXjXkXkXkXkXjXjXjXjXjXjXjXjXjXjXjXjXjXjXjXjXjXjXjXjXjXjXjXjX",
"jXjXjXjXjXjXjXjXjXjXjXjXjXjXjXjXjXjXjXjXjXjXjXjXjXjXjXjXjXjXjXjXjXjXjXjXjXjXjXjXjXjXjXjXjXjXlXjXjXjXjXjXjXjXjXjXlXjXjXjXjXjXjXjX",
"jXjXjXjXjXjXjXjXjXjXjXjXjXjXjXjXjXjXkXjXjXjXjXjXjXkXjXjXjXjXjXjXjXjXjXjXjXkXjXjXjXjXjXjXjXjXjXjXjXjXjXjXjXjXjXjXjXjXjXjXjXjXjXjX"
};
