/* XPM */
static char *result[] = {
/* columns rows colors chars-per-pixel */
"64 64 162 2 ",
"   c #000000",
".  c #03030B",
"X  c #080A0A",
"o  c #050712",
"O  c #070917",
"+  c #070719",
"@  c #07081A",
"#  c #08091C",
"$  c #0D1010",
"%  c #1F1919",
"&  c #131111",
"*  c #090A22",
"=  c #0C0F2B",
"-  c #0D102E",
";  c #111F20",
":  c #0E1030",
">  c #111536",
",  c #12163B",
"<  c #151E3D",
"1  c #112021",
"2  c #1A2A2C",
"3  c #182F31",
"4  c #17223E",
"5  c #1A3032",
"6  c #2A2A2A",
"7  c #213B3E",
"8  c #141941",
"9  c #161949",
"0  c #181D4F",
"q  c #151745",
"w  c #191E51",
"e  c #1D245B",
"r  c #1C2257",
"t  c #212A5E",
"y  c #222B62",
"u  c #242E6E",
"i  c #26326C",
"p  c #263A6B",
"a  c #2E3C7D",
"s  c #3D397F",
"d  c #7A325B",
"f  c #59356E",
"g  c #4D3976",
"h  c #513673",
"j  c #773C67",
"k  c #753D68",
"l  c #284042",
"z  c #2A4F4F",
"x  c #2C5252",
"c  c #2E565D",
"v  c #305657",
"b  c #305559",
"n  c #2D456C",
"m  c #2B4267",
"M  c #355F65",
"N  c #2D4377",
"B  c #34517D",
"V  c #396A6C",
"C  c #3F7378",
"Z  c #434040",
"A  c #4C4443",
"S  c #5B5454",
"D  c #50427E",
"F  c #446063",
"G  c #43767C",
"H  c #427476",
"J  c #577274",
"K  c #727979",
"L  c #8E2F4F",
"P  c #8C2F50",
"I  c #8B3050",
"U  c #863A5D",
"Y  c #2F3D80",
"T  c #303F81",
"R  c #323F89",
"E  c #324382",
"W  c #34448B",
"Q  c #36498C",
"!  c #3A4E8F",
"~  c #38598D",
"^  c #375586",
"/  c #364D91",
"(  c #3A4F90",
")  c #375093",
"_  c #3B5394",
"`  c #3F5799",
"'  c #3E5B9A",
"]  c #3F6B84",
"[  c #3C6593",
"{  c #3E609C",
"}  c #3F69A2",
"|  c #4D4380",
" . c #55518B",
".. c #585089",
"X. c #465394",
"o. c #415B9D",
"O. c #436D8D",
"+. c #44708A",
"@. c #476E9F",
"#. c #436796",
"$. c #4B7F96",
"%. c #425DA1",
"&. c #4363A1",
"*. c #446CA4",
"=. c #476FA9",
"-. c #4571A6",
";. c #4871A0",
":. c #4C7AA2",
">. c #4772A8",
",. c #4874AA",
"<. c #4779AA",
"1. c #497AAB",
"2. c #4C898F",
"3. c #4E8B90",
"4. c #4D8298",
"5. c #518E93",
"6. c #56989E",
"7. c #738384",
"8. c #4C82A6",
"9. c #4D85AC",
"0. c #4E89AD",
"q. c #518BA2",
"w. c #5284AC",
"e. c #538BAD",
"r. c #5695A6",
"t. c #5A9DA4",
"y. c #599AA9",
"u. c #4C86B1",
"i. c #4D88B2",
"p. c #5692B2",
"a. c #569AB5",
"s. c #599DB4",
"d. c #6E9EA1",
"f. c #5BA1A7",
"g. c #5EA3AD",
"h. c #5FA5B3",
"j. c #5BA3B9",
"k. c #61A1A7",
"l. c #6AA3A8",
"z. c #62ABB5",
"x. c #63AFB9",
"c. c #60A6B5",
"v. c #63B0B7",
"b. c #65B3B9",
"n. c #69B6BC",
"m. c #69B9BD",
"M. c #67B8BC",
"N. c #70B1B6",
"B. c #75B5BB",
"V. c #78BBC2",
"C. c #7FC0C6",
"Z. c #9A9797",
"A. c #98B3B5",
"S. c #B4B4B3",
"D. c #85BFC5",
"F. c #8EC9CF",
"G. c #97C8CD",
"H. c #ABC7CA",
"J. c #B6DFE3",
"K. c #BDE1E5",
"L. c #CADBDD",
"P. c None",
/* pixels */
"                                                                                                                                ",
"                                                                                                                                ",
"                                                                                                                                ",
"                                                                                                                                ",
"                                                                                                                                ",
"                                                                                                                                ",
"                                                                                                                                ",
"                                                                                                                                ",
"                                                                                                                                ",
"                                                                                                                                ",
"                                                                                                                                ",
"                                                                                                                                ",
"                                                                                                                                ",
"                                                                                                                                ",
"                                                                                                                                ",
"                                                                                                                                ",
"                                                                                                                                ",
"                                                                                                                                ",
"                                                                                                                                ",
"                                                                                                                                ",
"                                                                                                                                ",
"                                                                                                                                ",
"                                                                                                                                ",
"                                                                                                                                ",
"                                                                                                                                ",
"                                                                                                                                ",
"                                                                                                                                ",
"                                                . # * * * * * # * * * * @ .                                                     ",
"                                                # q r 0 0 0 0 0 0 0 0 0 8 @                                                     ",
"                                        . + + # 8 n B B B B B B B B B ^ n < # + O .                                             ",
"                                        # 8 9 9 n 4.y.y.r.r.r.r.r.r.r.y.$.m 9 9 , #                                             ",
"                                    . O 8 p N N +.h.m.M.b.b.b.b.b.M.b.M.f.O.N a i < O .                                         ",
"                                    + < p [ :.q.f.v.b.b.b.b.b.b.b.b.b.b.z.y.q.:.[ p , +                                         ",
"                                . o , u ~ 0.j.x.v.v.v.b.b.b.v.v.z.b.v.b.b.b.x.j.9.( y > o .                                     ",
"                              . # , y E ;.s.x.b.v.v.v.M.b.b.v.v.b.b.v.b.m.M.b.x.s.;.E e > #                                     ",
"                              o > y E { e.h.b.v.m.B.N.f.6.z.v.v.b.B.B.k.t.g.v.b.j.w.#.E e > o                                   ",
"                            # , t E ' <.p.z.v.v.G.K.A.F M 6.M.v.V.J.H.J b 2.b.b.z.p.>.` E e > O                                 ",
"                          . - e a ` >.i.a.x.b.b.G.L.Z.6 5 3.M.v.F.L.S.Z ; C b.M.z.a.i.=.` a r = .                               ",
"                          . : e E o.,.i.s.b.M.b.d.K A & 5 3.m.b.d.7.S % ; H b.m.x.a.i.,.o.a e -                                 ",
"                          . : e a ` =.i.y.c.b.z.G 5 X X w 3.V.m.3.t $ . 2 G z.b.h.a.u.>.` a r = .                               ",
"                          . - e Y ` ,.u.9.:.:.:.+.c z v H f.m.m.6.V z x V O.@.:.:.9.i.,.` a r = .                               ",
"                          . - e E ` ,.9.*._ W Q #.r.t.t.f.z.x.z.v.f.f.f.q.[ ! Q _ ;.9.,.` a e -                                 ",
"                          . = e a ` =.-.*.{ / W _ :.e.e.e.8.8.8.8.8.r.r.:._ W ! ' =.>.*.` a r = .                               ",
"                          . = e Y ` %.&.-.<.&.Q W Q ( ! ( ! ! ! ( ! ! ! Q W Q *.<.=.%.%.` a e = .                               ",
"                          . : e Y ` %.o.*.1.-.' / W s h f f f f f f g s W ) ' -.<.*.o.%.X.Y e =                                 ",
"                          . : t T X.%.o.o.&.>.<.} Q g d P P I I L L d g / } <.=.&.o.o.%.` a e -                                 ",
"                          . * e Y Q _ o.o.o.*.1.*._ | j U U U U U U k D ) } 1.*.o.o.o._ Q a w * .                               ",
"                            . P.u u E ` o.o.%.&.%.o.X. ..... . ..... .X.' &.&.&.o.o.` a i u P..                                 ",
"                              P.P.e a ` %.%.%.%.%.%.%.%.%.%.%.%.%.%.%.%.%.%.o.%.%.%.` a e P.P.                                  ",
"                                P.P.P.P.P.P.P.P.P.P.P.P.P.P.P.P.P.P.P.P.P.P.P.P.P.P.P.P.P.P.                                    ",
"                                  P.P.P.P.P.P.P.P.P.P.P.P.P.P.P.P.P.P.P.P.P.P.P.P.P.P.P.P.                                      ",
"                                                                                                                                ",
"                                                                                                                                ",
"                                                                                                                                ",
"                                                                                                                                ",
"                                                                                                                                ",
"                                                                                                                                ",
"                                                                                                                                ",
"                                                                                                                                ",
"                                                                                                                                ",
"                                                                                                                                ",
"                                                                                                                                ",
"                                                                                                                                ",
"                                                                                                                                "
};
