/* XPM */
static char *result[] = {
/* columns rows colors chars-per-pixel */
"64 64 231 2 ",
"   c #0C141A",
".  c #101E27",
"X  c #0D1638",
"o  c #0F1E28",
"O  c #15262F",
"+  c #283A3F",
"@  c #1A2D4A",
"#  c #1D2C52",
"$  c #1B3351",
"%  c #1E3D53",
"&  c #1B3046",
"*  c #24354B",
"=  c #253C48",
"-  c #232E56",
";  c #243C55",
":  c #2A3D55",
">  c #25325A",
",  c #2B3D65",
"<  c #313C66",
"1  c #25414A",
"2  c #28414F",
"3  c #2B4459",
"4  c #36495D",
"5  c #1E4B73",
"6  c #2D4965",
"7  c #2C4569",
"8  c #354364",
"9  c #394365",
"0  c #344A64",
"q  c #35436C",
"w  c #344A6C",
"e  c #3A4A6D",
"r  c #3B4968",
"t  c #3C5367",
"y  c #345960",
"u  c #33516A",
"i  c #395869",
"p  c #2D4876",
"a  c #354473",
"s  c #394576",
"d  c #344A73",
"f  c #3D4A72",
"g  c #334A7A",
"h  c #3E4B7B",
"j  c #2B5274",
"k  c #3C5473",
"l  c #3A5B73",
"z  c #3B537B",
"x  c #3C597D",
"c  c #2D5269",
"v  c #3E616C",
"b  c #45556B",
"n  c #49546D",
"m  c #455A6D",
"M  c #475867",
"N  c #434C74",
"B  c #425D73",
"V  c #4D547C",
"C  c #415B7C",
"Z  c #4D5C7C",
"A  c #465678",
"S  c #535979",
"D  c #43646E",
"F  c #4C6274",
"G  c #486379",
"H  c #55647A",
"J  c #4D707D",
"K  c #3D5584",
"L  c #355987",
"P  c #325282",
"I  c #3E648B",
"U  c #3F6282",
"Y  c #3B6C93",
"T  c #445384",
"R  c #4B5582",
"E  c #435689",
"W  c #445C8C",
"Q  c #495A8C",
"!  c #455886",
"~  c #595D85",
"^  c #435D92",
"/  c #4B5D93",
"(  c #446383",
")  c #4B6383",
"_  c #446A85",
"`  c #4D6A86",
"'  c #45638C",
"]  c #4B6A88",
"[  c #546B85",
"{  c #53638B",
"}  c #5C628C",
"|  c #556C8A",
" . c #5C6887",
".. c #497388",
"X. c #5B7988",
"o. c #4B6494",
"O. c #4C6C93",
"+. c #476798",
"@. c #566694",
"#. c #4D7B95",
"$. c #4C729E",
"%. c #497597",
"&. c #557392",
"*. c #5C7A94",
"=. c #5C7B9D",
"-. c #597794",
";. c #64678B",
":. c #6D738E",
">. c #6B6991",
",. c #697693",
"<. c #747B96",
"1. c #7A7B9C",
"2. c #777997",
"3. c #4E6AA1",
"4. c #536CA3",
"5. c #4C74A3",
"6. c #5272A3",
"7. c #547BA5",
"8. c #5679A9",
"9. c #787FA2",
"0. c #52849C",
"q. c #5A849D",
"w. c #538492",
"e. c #5B909B",
"r. c #6B8198",
"t. c #738494",
"y. c #798C94",
"u. c #72819C",
"i. c #7C8C9A",
"p. c #788596",
"a. c #69959C",
"s. c #789096",
"d. c #5E81A2",
"f. c #538BA5",
"g. c #5988AA",
"h. c #5D89B7",
"j. c #5C82B2",
"k. c #5D9BB6",
"l. c #5493AD",
"z. c #648CAC",
"x. c #6688AA",
"c. c #7880A6",
"v. c #6695A6",
"b. c #7394AC",
"n. c #779AA9",
"m. c #648AB5",
"M. c #6B9BB6",
"N. c #6D95BC",
"B. c #6797B7",
"V. c #759DB4",
"C. c #7299BB",
"Z. c #7899B5",
"A. c #68A0AE",
"S. c #6EA4B5",
"D. c #67A6B7",
"F. c #73A2B3",
"G. c #75ABB5",
"H. c #7BABB4",
"J. c #75A3BC",
"K. c #72ABBC",
"L. c #7DA7B9",
"P. c #76B3BB",
"I. c #77A1AC",
"U. c #6998C5",
"Y. c #759FC4",
"T. c #7097CA",
"R. c #739ECF",
"E. c #62A6C4",
"W. c #64ABC5",
"Q. c #6CABCA",
"!. c #6BA9C7",
"~. c #7CA4C3",
"^. c #76A6C6",
"/. c #78B4C8",
"(. c #6FADD1",
"). c #6CADCD",
"_. c #7EC1CA",
"`. c #838E9B",
"'. c #808A95",
"]. c #87919E",
"[. c #8C9CAA",
"{. c #8C93A8",
"}. c #9397A8",
"|. c #999CB3",
" X c #8285A1",
".X c #92A3AE",
"XX c #82A8BB",
"oX c #9CABBC",
"OX c #A6A2B7",
"+X c #A6A6BA",
"@X c #A4A9BA",
"#X c #81AFC0",
"$X c #81B7CB",
"%X c #A6ACC4",
"&X c #A8ACC4",
"*X c #A9B0C7",
"=X c #AFBEC7",
"-X c #B5BDC6",
";X c #B4BDC9",
":X c #BBBDCA",
">X c #91C6CF",
",X c #BDC1CB",
"<X c #B5C0C8",
"1X c #BFC8D1",
"2X c #ABE5EB",
"3X c #C6C8D4",
"4X c #C5D1D6",
"5X c #C9D6DB",
"6X c #C2C5CB",
"7X c #D6DDEA",
"8X c #D8DBE5",
"9X c #CCDBE2",
"0X c #E1DFEB",
"qX c #D9E2E7",
"wX c #DBE3EA",
"eX c #DCEAEF",
"rX c #D6E0EA",
"tX c #E2E2EA",
"yX c #E2EBEE",
"uX c #EAEBEF",
"iX c #EEECF2",
"pX c #E7F0F3",
"aX c #EBF2F4",
"sX c #EFF5FD",
"dX c #F2F4F5",
"fX c #F9F7F6",
"gX c #FDFBF6",
"hX c #F6F6FD",
"jX c #FAF7FC",
"kX c #F6FCFE",
"lX c #FEFEFE",
/* pixels */
"lXlXlXlXlXlXlXlXlXlXlXlXlXlXlXlXlXlXlXlXlXlXlXlXlXlXlXlXlXlXlXlXlXlXlXlXlXlXlXlXlXlXlXlXlXlXlXlXlXlXlXlXlXlXlXlXlXlXlXlXlXlXlXlX",
"lXlXlXlXlXlXlXlXlXlXlXlXlXlXlXlXlXgXlXgXlXlXlXlXgXlXlXlXlXlXlXlXlXlXlXlXlXlXlXlXlXlXlXlXlXlXlXlXlXlXlXlXlXlXlXlXlXlXlXlXlXlXlXlX",
"lXlXlXlXlXlXlXlXlXlXlXlXlXlXlXlXlXlXlXlXlXlXlXgXlXlXlXlXlXlXlXlXlXlXlXlXlXlXlXlXlXlXlXlXlXlXlXlXlXlXlXlXlXlXlXlXlXlXlXlXlXlXlXlX",
"lXlXlXlXlXlXlXlXlXlXlXlXlXlXlXlXlXlXkXgXgXlXlXlXlXlXlXlXlXlXlXlXlXlXlXlXlXlXlXlXlXlXlXlXlXlXlXlXlXlXlXlXlXlXlXlXlXlXlXlXlXlXlXlX",
"lXlXlXlXlXlXlXlXlXlXlXlXlXlXlXlXlXlXlXlXgXlXlXlXlXlXlXlXlXlXlXlXlXlXlXlXlXlXlXlXlXlXlXlXlXlXlXlXlXlXlXlXlXlXlXlXlXlXlXlXlXlXlXlX",
"lXlXlXlXlXlXlXlXlXlXlXlXlXlXlXlXlXlXgXlXlXlXlXlXlXlXlXlXlXlXlXlXlXlXlXlXlXlXlXlXlXlXlXlXlXlXlXlXlXlXlXlXlXlXlXlXlXlXlXlXlXlXlXlX",
"lXlXlXlXlXlXlXlXlXlXlXlXlXlXlXlXlXlXkXlXlXlXlXgXgXlXlXlXlXlXlXlXlXlXlXlXlXlXlXlXlXlXlXlXlXlXlXlXlXlXlXlXlXlXlXlXlXlXlXlXlXlXlXlX",
"lXlXlXlXlXlXlXlXlXlXlXlXlXlXlXlXlXgXlXgXlXlXlXlXlXlXlXlXlXlXlXlXlXlXlXlXlXlXlXlXlXlXlXlXlXlXlXlXlXlXlXlXlXlXlXlXlXlXlXlXlXlXlXlX",
"lXlXlXlXlXlXlXlXlXlXlXlXlXlXlXlXgXkXlXgXlXlXgXlXlXlXlXlXlXlXlXlXlXlXlXlXlXkXlXlXlXlXlXlXlXlXlXlXlXlXlXlXlXlXlXlXlXlXlXlXlXlXlXlX",
"lXlXlXlXlXlXlXlXlXlXlXlXlXlXlXlXlXlXlXlXlXlXlXlXlXlXlXlXlXlXlXlXlXlXlXlXlXlXlXlXlXlXlXgXlXlXlXlXlXlXlXlXlXlXlXlXlXlXlXlXlXlXlXlX",
"lXlXlXlXlXlXlXlXlXlXlXlXlXlXlXlXlXgXlXlXlXlXgXlXlXlXlXlXlXlXlXlXlXlXlXlXlXgXlXlXlXlXlXlXlXgXlXlXlXlXlXlXlXlXlXlXlXlXlXlXlXlXlXlX",
"lXlXlXlXlXlXlXlXlXlXlXlXlXlXlXlXlXlXlXlXlXlXlXlXlXlXlXlXlXlXlXlXlXlXlXlXlXlXlXlXlXgXlXlXlXlXlXlXlXlXlXlXlXlXlXlXlXlXlXlXlXlXlXlX",
"lXlXlXlXlXlXlXlXlXlXlXlXlXlXlXlXlXlXlXlXlXlXlXlXlXlXlXlXlXlXlXlXlXlXlXlXlXlXlXlXlXlXlXlXlXlXlXlXlXlXlXlXlXlXlXlXlXlXlXlXlXlXlXlX",
"lXlXlXlXlXlXlXlXlXlXlXlXlXlXlXlXlXlXlXlXlXlXlXlXlXlXlXlXlXlXlXlXlXlXlXlXlXlXlXlXlXlXlXlXlXlXlXlXlXlXlXlXlXlXlXlXlXlXlXlXlXlXlXlX",
"lXlXlXlXlXlXlXlXlXlXlXgXlXlXlXlXlXlXlXlXlXlXlXlXlXlXlXlXlXlXlXlXlXlXlXlXlXlXlXlXlXlXlXlXlXlXlXlXlXlXlXlXlXlXlXlXlXlXlXlXlXlXlXlX",
"lXlXlXlXlXlXlXlXlXlXlXlXlXlXlXlXlXlXlXlXlXlXlXlXlXlXlXlXlXlXlXlXlXlXlXlXlXlXlXlXlXlXlXlXlXlXlXlXlXlXlXlXlXlXlXlXlXlXlXlXlXlXlXlX",
"lXlXlXlXlXlXlXlXlXlXlXlXlXlXlXlXlXlXlXlXlXlXlXlXlXlXjXlXlXlXlXlXlXlXlXlXlXlXlXlXlXlXlXlXlXlXlXlXlXlXlXlXlXlXlXlXlXlXlXlXlXlXlXlX",
"lXlXlXlXlXlXlXlXlXlXlXlXlXlXlXlXlXlXlXlXlXlXlXlXlXlXkXkXlXlXlXlXlXlXlXlXlXlXlXlXlXlXlXjXlXlXlXlXlXlXlXlXlXlXlXlXlXlXlXlXlXlXlXlX",
"lXlXlXlXlXlXlXlXlXgXlXlXlXlXlXlXlXlXlXlXlXlXlXlXlXjXhXkXlXlXlXlXlXlXlXlXlXlXlXlXlXlXjXjXjXjXlXlXlXlXlXlXlXlXlXlXlXlXlXlXlXlXlXlX",
"jXjXlXlXlXlXlXlXlXfXfXgXgXlXlXlXlXlXlXlXlXlXlXlXlXlXjXlXlXjXlXkXkXjXhXjXjXjXlXlXlXlXlXlXjXjXfXlXlXlXlXlXlXlXlXlXlXlXlXlXlXlXlXlX",
"jXjXlXlXlXlXlXkXjXfXgXgXgXgXlXlXlXlXlXlXlXlXlXlXlXlXlXkXlXlXkXkXkXkXkXhXjXlXlXlXlXlXlXlXjXhXfXjXlXlXlXlXlXlXlXlXlXlXlXlXlXlXlXlX",
"jXlXlXlXgXgXgXlXgXgXgXgXgXjXjXjXlXlXlXlXlXjXkXkXlXlXlXlXlXlXlXkXlXkXlXlXlXlXlXlXlXlXlXjXjXjXjXlXlXlXjXlXlXlXlXlXlXlXlXlXlXlXlXlX",
"lXlXlXlXfXfXfXlXlXlXgXlXlXfXfXjXjXlXlXlXlXkXsXaXiXyXeXeXeXeXeXeXeXeXyXuXuXuXuXuXhXgXlXjXjXlXlXlXlXjXlXlXlXlXlXlXlXlXlXlXlXlXlXlX",
"lXlXlXlXjXfXfXlXlXgXlXlXlXgXfXlXlXlXlXlXlXlXaX,X`.p.s.s.y.s.y.y.y.y.y.i.`.].'.}.6XhXlXjXlXlXlXjXjXjXjXlXlXlXlXlXlXlXlXlXlXlXlXlX",
"lXlXlXlXjXjXlXlXgXgXgXlXlXlXlXlXlXlXlXlXlXlXqXi.3 * : 2 2 1 1 = 1 1 = : : : ; 4 `.qXhXlXlXlXjXkXkXjXlXlXlXlXlXlXlXlXlXlXlXlXlXlX",
"lXlXjXlXjXjXlXlXgXfXgXlXlXlXlXkXhXjXlXlXdX6X{.F 3 3 m B D i y y y D D l 0 6 : : Z {.,XaXlXlXkXkXjXlXlXlXlXlXlXlXlXlXlXlXlXlXlXlX",
"lXlXjXjXlXlXlXlXjXfXfXlXlXlXkXsXsXkXkXkXqXi.0 6 B -.n.[.I.n.a.a.n.I.XXI.a.&.Z k 6 0 s.rXkXkXkXlXlXlXlXlXlXlXlXlXlXlXlXlXlXlXlXlX",
"lXlXjXlXlXlXlXgXfXfXgXlXlXlXkXkXkXkXaX1X[.Z 6 x =.b.L.L.H.H.H.G.H.P.XXL.M.z.q.] c 3 G [.1XaXlXlXlXlXlXlXlXlXlXlXlXlXlXlXlXlXlXlX",
"lXlXlXlXlXlXlXgXlXlXlXlXlXkXkXkXkXkX9Xt.8 0 Q ,.b.V.V.V.V.F.G.G.G.S.D.D.M.M.B.q...l 6 4 t.qXkXlXkXkXlXlXlXlXlXlXlXlXlXlXlXlXkXgX",
"lXlXlXlXlXlXgXgXgXlXlXkXkXkXkXkXpX1X[.B ; x =.Z.~.~.J.S.A.G.P.P.D.D.A.D.!.K.A.f.0._ c % D .X4XpXlXlXlXlXlXlXlXlXlXlXlXlXgXlXlXlX",
"jXjXlXlXlXlXfXfXfXlXlXfXfXkXkXkX9Xt.b 0 x -.N.Y.^.~.^.K.K.K.P.P.D.D.W.W.).Q.k.f.0.w._ l u t t.5XkXkXkXlXlXlXlXlXlXlXlXlXlXlXlXlX",
"jXjXjXlXlXlXjXfXgXfXkXfXkXkXpX5X.XD ; i &.b.C.b.x.z.K.^.K.A.e.a.P._._.).W.W.k.l.f.0.#.J c ; D .X5XpXkXlXlXlXlXlXlXlXlXgXlXlXgXlX",
"lXjXhXhXfXlXlXlXkXfXkXkXlXlX4Xt.M u k ] r.C.C.] : C B./.P.w.3 D >X2X_.W.W.E.E.E.k.g.%.U l u 0 m p.4XlXlXlXlXlXlXlXlXlXlXlXgXlXlX",
"lXlXkXkXlXlXlXkXkXfXgXlXlXkX-XM & 0 ) -.z.C.N.f X 6 B./.P.J O + ].>X>XW.W.W.W.W.k.g.%.I U ( w @ M ,XlXlXlXlXlXlXlXlXlXgXlXlXlXlX",
"kXjXkXjXlXlXkXgXgXkXkXkXkXkX=Xb & 6 ( 7.m.^.N.d X w M.$XK.J O   + D a.Q.(.(.(.R.U.7.$.I W ' e @ b ;XlXlXlXlXlXlXlXlXlXlXlXlXlXgX",
"kXkXlXlXlXlXgXfXgXlXkXkXkXkX;XB $ 7 ( 7.m.U.h.z # x V./.F.X.= o . 1 w.k.U.U.T.(.U.j.3.^ K W a # b ;XlXlXlXlXlXlXlXlXlXlXlXlXlXlX",
"lXkXkXlXlXlXlXkXkXlXlXhXkXkX<Xm $ j ' =.8.5.Y Y $.x.C.~.Z.b.X.H G D I Y Y Y l.R.T.m.4.I E Q s > V :XjXlXlXlXlXlXgXlXlXlXgXlXgXlX",
"lXlXkXkXkXlXlXlXlXlXjXhXlXkX<XB $ d ' $.3.L L 5.N.C.N.b.b.b.Z.[.n.r.U j 5 P 8.T.T.8.4.^ E Q s > S :XlXlXlXlXlXlXlXlXlXlXlXlXlXlX",
"kXkXlXkXkXlXlXlXlXlXlXkXlXjX:Xn $ d ^ +.+.Y Y 5.5.5.O.O.O.&.,.>.-.` j j Y 7.h.h.m.4.o.E E T s - V :XlXlXlXlXlXlXlXgXlXgXlXlXlXlX",
"kXkXlXlXlXlXlXlXlXlXlXlXlXlX:Xn # s W W 3.4.8.+.L g g p p d z N u w 7 L g.R.U.8.+.^ ^ Q Q T < - S ,XlXlXlXlXlXlXlXlXgXgXgXgXlXlX",
"lXkXlXlXlXlXlXlXlXlXjXlXlXlX-Xn # a W ^ ' 3.6.3./ K g < p < s 9 w e x O.x.N.x.O.W K W o.T q < N :.3XlXlXlXlXlXlXgXgXgXgXlXlXlXlX",
"lXlXlXkXgXlXlXgXjXjXjXlXlXhX;XS > d E E E ^ 3.4.4.3.K g a s N N N A ] =.x.7.O.W x z ! { A , < ~ }.8XlXlXlXlXlXlXlXlXgXlXgXlXlXlX",
"lXlXlXlXlXlXlXgXlXjXlXlXlXhX3X:.r 8 < , < P E / / / T T h h R R A V { &.&.&.] B C A z e f N S :.|.8XlXlXlXlXlXlXgXgXgXgXgXlXlXgX",
"lXlXlXlXlXlXgXgXgXlXlXlXlXhX5X|.;.9 - # > a T / Q E T E E ~ } } ~ S Z ) ` ` ( x Z ) e > 9 ;.9. X@X0XlXlXlXlXlXlXgXgXgXgXlXlXlXlX",
"lXlXlXlXlXlXgXgXgXlXlXlXlXjX0X3X|.S 9 < N T @.@.@.@.} ;.;.>.>.>.;.~ [ [  .| [ [ | | Z e Z <.{.&X6XuXlXlXlXlXlXgXgXgXgXgXlXlXlXlX",
"lXlXfXfXgXlXlXlXlXlXlXlXlXlXjXiX3X{.:.,.9.9.9.9.9.9.9.9.1.2.2.2.2.2.t.t.t.r.r.r.u.u.u.1.<.1.|.3XiXjXlXlXlXlXlXgXgXgXgXlXgXlXlXlX",
"lXlXfXfXgXlXlXlXlXlXlXgXlXgXlXlXiX,X%X%X*X*X&X&X*X&X&X&XOXOXOXOXOXOX@X@XoXoXoXoX%XoX%X*X@X@X:XiXlXlXlXlXlXlXlXgXgXgXgXgXgXlXgXlX",
"lXlXfXlXlXlXlXlXlXgXfXfXfXhXfXlXjXiX0X0XeXyXtXtXtX0X0X0XtX0XtXtXtXtXwXqXqXqXqXqX7X7X7X7XtXtXuXfXlXlXlXlXlXlXlXgXgXgXgXlXlXlXlXlX",
"lXlXlXlXlXlXlXlXgXgXgXfXfXfXgXgXlXlXlXlXlXlXlXlXlXkXlXlXlXlXlXlXlXlXlXkXlXkXkXlXkXkXhXkXjXlXlXjXlXlXlXlXlXlXlXgXlXgXgXlXlXgXlXlX",
"lXlXlXlXlXgXgXlXlXgXgXlXgXkXgXgXgXlXlXlXlXlXlXlXlXlXlXlXlXlXlXlXlXlXlXkXkXkXkXjXjXlXlXlXlXlXlXjXhXlXlXlXlXgXlXgXgXlXlXlXlXlXgXlX",
"lXlXlXlXgXgXlXlXlXlXlXgXlXlXlXgXgXlXlXlXlXlXlXlXlXlXlXlXlXgXgXgXkXlXlXlXlXkXjXjXlXlXlXlXlXlXjXkXjXjXlXlXlXlXlXlXlXlXlXkXlXlXlXlX",
"lXlXlXlXlXlXlXlXlXlXlXlXgXlXgXgXgXlXgXgXgXkXlXlXlXlXlXlXlXlXgXgXgXlXlXlXlXlXlXlXlXlXlXlXlXlXlXlXjXlXlXlXlXlXlXlXlXlXlXgXgXlXlXlX",
"lXlXlXlXlXlXlXlXlXgXkXlXgXgXgXgXgXgXgXgXgXlXlXlXlXlXlXlXgXgXgXgXlXlXlXlXlXlXlXlXlXlXlXlXlXlXlXlXlXlXlXlXlXlXlXgXlXlXlXlXlXlXlXlX",
"lXlXlXlXlXlXlXlXlXlXlXgXlXlXgXgXgXgXgXgXgXgXlXlXkXlXlXlXlXlXgXlXlXlXlXlXlXlXlXlXlXlXlXlXlXlXlXlXlXlXlXlXlXlXlXlXlXlXlXlXlXlXlXlX",
"lXlXlXlXlXlXlXlXlXlXlXlXlXlXlXlXgXgXgXgXlXlXlXlXlXlXlXgXlXlXlXgXlXlXlXlXlXlXlXlXlXlXlXlXlXlXlXlXlXlXlXlXlXlXlXlXlXlXlXlXlXlXlXlX",
"lXlXlXlXlXlXlXlXlXlXlXlXlXlXlXlXlXlXlXlXlXlXlXlXlXlXlXlXlXlXlXlXlXlXlXlXlXlXlXlXlXlXlXlXlXlXlXlXlXlXlXlXlXlXlXlXlXlXlXlXlXlXlXlX",
"lXlXlXlXlXlXlXlXlXlXlXlXlXlXlXlXlXlXlXlXlXlXlXlXlXlXlXlXlXlXlXlXlXlXlXlXlXlXlXlXlXlXlXlXlXlXlXlXlXlXlXlXlXlXlXlXlXlXlXlXlXlXlXlX",
"lXlXlXlXlXlXlXlXlXlXlXlXlXlXlXlXlXlXlXlXlXlXlXlXlXlXlXlXlXlXlXlXlXlXlXlXlXlXlXlXlXlXlXlXlXlXlXlXlXlXlXlXlXlXlXlXlXlXlXlXlXlXlXlX",
"gXlXlXlXlXlXlXlXlXlXlXlXlXlXlXlXlXlXlXlXlXlXlXlXlXlXlXlXlXlXlXlXlXlXlXlXlXlXlXlXgXlXlXlXlXlXlXlXlXlXlXlXlXlXlXlXlXlXlXlXlXlXlXlX",
"lXlXkXlXlXlXlXlXlXlXlXlXlXlXlXlXlXlXlXlXlXlXlXlXlXlXlXlXlXlXlXlXlXlXlXlXlXlXlXlXlXlXlXlXlXgXlXlXlXlXlXlXlXlXlXlXlXlXlXlXlXlXlXlX",
"gXlXlXlXlXlXlXlXlXlXlXlXlXlXlXlXlXlXlXlXlXlXlXlXlXlXlXlXlXlXlXlXlXlXlXlXlXlXlXlXlXlXlXlXlXlXlXlXlXlXlXlXlXlXlXlXlXlXlXlXlXlXlXlX",
"lXlXlXgXlXlXlXlXlXlXlXlXlXlXlXlXlXlXlXlXlXlXlXlXlXlXlXlXlXlXlXlXlXlXlXlXlXlXlXlXlXlXlXlXlXlXlXlXlXlXlXlXlXlXlXlXlXlXlXlXlXlXlXlX",
"lXlXlXlXlXlXlXlXlXlXlXlXlXlXlXlXlXlXlXlXlXlXlXlXlXlXlXlXlXlXlXlXlXlXlXlXlXlXlXlXlXlXlXlXgXlXlXlXlXlXlXlXlXlXlXlXlXlXlXlXlXlXlXlX",
"lXlXlXgXlXlXlXlXlXlXlXlXlXlXlXlXlXlXlXlXlXlXlXlXlXlXlXlXlXlXlXlXlXlXlXlXlXlXlXlXlXlXlXgXlXkXlXlXlXlXlXlXlXlXlXlXlXlXlXlXlXlXlXlX"
};
