/* XPM */
static char *result[] = {
/* columns rows colors chars-per-pixel */
"64 64 91 1 ",
"  c #000000",
". c #03030B",
"X c #060714",
"o c #070817",
"O c #07071A",
"+ c #070818",
"@ c #090A1E",
"# c #0C0D2C",
"$ c #0E122C",
"% c #0E0F33",
"& c #0F1232",
"* c #111535",
"= c #121835",
"- c #12163C",
"; c #13193A",
": c #131740",
"> c #151945",
", c #171C4C",
"< c #181D4E",
"1 c #1C2455",
"2 c #1D255A",
"3 c #1F2A5C",
"4 c #1F305A",
"5 c #21285E",
"6 c #213152",
"7 c #283E5F",
"8 c #1F2661",
"9 c #212C62",
"0 c #242D6A",
"q c #233163",
"w c #253966",
"e c #27336F",
"r c #273273",
"t c #283372",
"y c #2D3C7A",
"u c #37587C",
"i c #324383",
"p c #324B82",
"a c #354689",
"s c #36498B",
"d c #384C8D",
"f c #335284",
"g c #3B5F80",
"h c #385B8B",
"j c #394E90",
"k c #3B5393",
"l c #3E5895",
"z c #3F5799",
"x c #3F5B9A",
"c c #3F6689",
"v c #425C9E",
"b c #426C8E",
"n c #436E90",
"m c #42619E",
"M c #436C9C",
"N c #457192",
"B c #445DA4",
"V c #4464A3",
"C c #456EA6",
"Z c #486FA6",
"A c #4762A9",
"S c #4770A7",
"D c #467CA5",
"F c #4879A3",
"G c #4671A8",
"H c #4876AA",
"J c #4A7BAD",
"K c #4E849C",
"L c #4C84AE",
"P c #548FA3",
"I c #5082A9",
"U c #558DAD",
"Y c #5695A5",
"T c #5594AF",
"R c #5C9FAD",
"E c #4D86B1",
"W c #4D89B1",
"Q c #508AB0",
"! c #5393B4",
"~ c #5699B4",
"^ c #589DB6",
"/ c #5DA2AF",
"( c #5CA3B6",
") c #60A7B2",
"_ c #62ACB6",
"` c #61ADBB",
"' c #64B0B7",
"] c #65B1B8",
"[ c #68B6BB",
"{ c #69B9BD",
"} c None",
/* pixels */
"                                                                ",
"                                                                ",
"                                                                ",
"                                                                ",
"                                                                ",
"                                                                ",
"                                                                ",
"                                                                ",
"                                                                ",
"                                                                ",
"                                                                ",
"                                                                ",
"                                                                ",
"                                                                ",
"                                                                ",
"                                                                ",
"                                                                ",
"                                                                ",
"                                                                ",
"                                                                ",
"                        ............                            ",
"                       @#&&%%%%*%%%#X                           ",
"                      X*3599595q9991$. .                        ",
"                   @%#*7bNnnbbbbbbbc6###@                       ",
"                  o-12qbR_))))))))_Yu311&.                      ",
"                .O;wfhbP_{[[{][[[{{_Kcfu6$o                     ",
"                X-qhLT/_']'']]]]]]]_)(QDf1#.                    ",
"              .o*9pD^]]]]'']]]_]]]'][{(~My1#o                   ",
"              o-5imU_]]]]']]']']]_]]]]](Ivy1&.                  ",
"            .o*9izH^]]]_]']]]]]]]]]]_][_UCky2$o                 ",
"            o-9ilGW(]]]]]]]]]']]]]]_]]]]^ECky1&.                ",
"            @<tjVJ!(]]]]]]']]]]]]]]]]]]_(WHVs0:o                ",
"            @<tjVJ!(']]]]]]']]]]]]]]_]]_(WHVa8:X                ",
"            @<tjVJ!(']'']]]]]]']]]]]]]]_(WHVs0:X                ",
"            @<tdVE!(]]]'']]]]]]]]]_]]]]](WHva0:X                ",
"            @,tjVHW(_']]]]]]]']']]]]]]__^LGva0:X                ",
"            @,tjVVGW^(]]]]]]]]]''[]]]](~LZVvs0-X                ",
"            @,tjxBVHW(_'__`_'(''___`__~LCvBva0:X                ",
"            @,tjvvvVGQ^^^^^^^^^^^^^^^~LZVvBvs0:o                ",
"            @,tjzvvvVGWWWEWWWWWWWWWWWLZmvlvka0:o                ",
"            X>ryikvvvVCGGGGGGGGGGGGGGCVvvvdiy0&.                ",
"             }}8edvBvvvvvBvmvvvBvvmvBVvvvzi08}}                 ",
"             }}<0jAAABBBBBBBBBBBBBBBBBBBABs9}}                  ",
"               }}}}}}}}}}}}}}}}}}}}}}}}}}}}}}                   ",
"               }}}}}}}}}}}}}}}}}}}}}}}}}}}}}                    ",
"                                                                ",
"                                                                ",
"                                                                ",
"                                                                ",
"                                                                ",
"                                                                ",
"                                                                ",
"                                                                ",
"                                                                ",
"                                                                ",
"                                                                ",
"                                                                ",
"                                                                ",
"                                                                ",
"                                                                ",
"                                                                ",
"                                                                ",
"                                                                ",
"                                                                "
};
