/* XPM */
static char *result[] = {
/* columns rows colors chars-per-pixel */
"64 64 145 2 ",
"   c #000000",
".  c #03040D",
"X  c #110D0D",
"o  c #050612",
"O  c #070817",
"+  c #070819",
"@  c #0B1414",
"#  c #0C0D2C",
"$  c #0E112C",
"%  c #0F1231",
"&  c #12163C",
"*  c #122122",
"=  c #182A2C",
"-  c #1E3539",
";  c #33302F",
":  c #213A3C",
">  c #3A3333",
",  c #151946",
"<  c #161B4A",
"1  c #1B1F5B",
"2  c #1C2455",
"3  c #1E265B",
"4  c #1F2662",
"5  c #212964",
"6  c #252F6C",
"7  c #25306D",
"8  c #263070",
"9  c #2C3977",
"0  c #2D3C79",
"q  c #7F345A",
"w  c #5F3B6F",
"e  c #5D346B",
"r  c #42397C",
"t  c #513C77",
"y  c #6A3162",
"u  c #7C3F67",
"i  c #254447",
"p  c #29494C",
"a  c #2E5253",
"s  c #32565D",
"d  c #32595C",
"f  c #386367",
"g  c #3B6B6C",
"h  c #3B6A75",
"j  c #4C5D5E",
"k  c #6D4371",
"l  c #704B76",
"z  c #566263",
"x  c #42757A",
"c  c #952F4B",
"v  c #834161",
"b  c #2E3B87",
"n  c #303B87",
"m  c #313F8A",
"M  c #334584",
"N  c #3C4587",
"B  c #344F86",
"V  c #35448B",
"C  c #3A4588",
"Z  c #374A8C",
"A  c #384C8E",
"S  c #375988",
"D  c #3C5F88",
"F  c #374B91",
"G  c #394E91",
"H  c #375092",
"J  c #3C5494",
"K  c #3E5A94",
"L  c #3F579B",
"P  c #3E6489",
"I  c #3E619C",
"U  c #3F61A9",
"Y  c #4D4885",
"T  c #4B538B",
"R  c #4D5593",
"E  c #42579A",
"W  c #425B9E",
"Q  c #406982",
"!  c #416B8C",
"~  c #447681",
"^  c #477E81",
"/  c #416096",
"(  c #456B97",
")  c #42669D",
"_  c #466D9C",
"`  c #586696",
"'  c #49749E",
"]  c #616890",
"[  c #445DA2",
"{  c #4361A2",
"}  c #446CA4",
"|  c #4060A8",
" . c #4A74A3",
".. c #4C7BA5",
"X. c #4773A9",
"o. c #4875A9",
"O. c #4678AC",
"+. c #497BAC",
"@. c #507FA7",
"#. c #498186",
"$. c #488288",
"%. c #4E888E",
"&. c #4F8B91",
"*. c #519091",
"=. c #55969C",
"-. c #589B9E",
";. c #5C9499",
":. c #619598",
">. c #4B82AE",
",. c #5084A6",
"<. c #528DAC",
"1. c #5A9EA4",
"2. c #5692AC",
"3. c #5A9CAD",
"4. c #5694A4",
"5. c #4D86B0",
"6. c #4E8BB3",
"7. c #508EB1",
"8. c #5293B4",
"9. c #5A97B3",
"0. c #5699B5",
"q. c #5A9DB5",
"w. c #5BA1A7",
"e. c #5DA3AD",
"r. c #5DA3B4",
"t. c #5EA5BA",
"y. c #5FA9BD",
"u. c #60A6B3",
"i. c #62ADB6",
"p. c #62ADBA",
"a. c #63B0B7",
"s. c #66B3B9",
"d. c #68B6BB",
"f. c #69B9BD",
"g. c #7FB7BC",
"h. c #6ABBC2",
"j. c #74BAC0",
"k. c #999594",
"l. c #8BBEC3",
"z. c #ADBEC0",
"x. c #88C5CA",
"c. c #8FC9CF",
"v. c #BBC9CA",
"b. c #C8E7EA",
"n. c None",
/* pixels */
"                                                                                                                                ",
"                                                                                                                                ",
"                                                                                                                                ",
"                                                                                                                                ",
"                                                                                                                                ",
"                                                                                                                                ",
"                                                                                                                                ",
"                                                                                                                                ",
"                                                                                                                                ",
"                                                                                                                                ",
"                                                                                                                                ",
"                                                                                                                                ",
"                                                                                                                                ",
"                                                                                                                                ",
"                                                                                                                                ",
"                                                                                                                                ",
"                                                                                                                                ",
"                                                                                                                                ",
"                                                                                                                                ",
"                                                                                                                                ",
"                                                                                                                                ",
"                                                                                                                                ",
"                                                . .   . .   .     .   . .     .                                                 ",
"                                              + $ # # # # # # $ # # # # # # % $ +                                               ",
"                                            . % 2 3 3 2 2 3 3 3 3 3 3 3 3 2 3 2 % .                                             ",
"                                          o $ 2 0 M B S P P P P P P P P P P B 0 2 $ O                                           ",
"                                        . % 2 0 J } +.7.3.r.e.e.e.r.e.r.e.3...E 0 2 $ .                                         ",
"                                      o $ 2 0 J } 5.0.t.s.d.f.s.d.d.s.d.d.s.9...K 9 2 $ O                                       ",
"                                    . % 2 0 L } >.0.t.a.a.s.a.a.s.s.a.s.s.a.i.e.@.E 9 2 % .                                     ",
"                                  O $ 2 0 J } +.6.0.i.s.s.a.i.i.s.s.s.a.a.s.d.s.q.@.E 9 2 # O                                   ",
"                                o % 2 0 J } >.5.6.0.i.s.a.s.a.i.s.s.s.a.i.s.s.s.i.3.@.E 0 2 % o                                 ",
"                              o $ 2 0 G { O.6.7.8.r.a.a.s.f.x.l.:.%.w.s.s.i.=.%.-.i.9.X.H 0 2 $ o                               ",
"                            o % 2 0 G L [ O.6.8.u.i.a.i.i.c.b.z.j i $.p.h.e.f : g e.t.5.} J 0 2 % O                             ",
"                            + , 8 A W W { O.6.t.p.a.s.a.a.x.v.k.; * x s.h.1.p @ a e.y.6.+.{ Z 7 < +                             ",
"                            + < 8 A W [ { X.6.q.a.d.s.d.s.:.z > X * x p.h.1.p @ a e.y.8.+.{ G 8 < +                             ",
"                            + , 7 A W W { X.6.r.i.i.r.u.u.x - @ @ : ^ d.h.w.d = s 4.r.6.+.{ A 7 , +                             ",
"                            + , 7 A W W ) X.7.r.i.<._ ( _ ! h g g x w.d.h.i.*.x Q ( ..5.+.{ Z 6 , +                             ",
"                            + , 7 A W W W X.5.q.u.,.E V V K <.r.i.r.e.r.u.u.u.3.' J I +.+.) Z 7 , +                             ",
"                            + , 7 A [ [ [ } X.<.0.2.../ M G } +..... .' '  .'  .} ) } } } [ Z 7 , +                             ",
"                            O , 7 Z L W W W W o.>.q.r.,.J M C A N V C V V C Z A ) +.o.{ W [ A 7 , +                             ",
"                            . & 6 9 M J W W W { X.7.9.6.} T y y y t 0 n n m G I _ X.} [ W { A 7 , +                             ",
"                              n.n.4 7 M W W W W ) X.5.6.>.] v c c c t m m F U >.X.) W L W W A 7 , +                             ",
"                              n.n.n.5 9 M J W W W { X.O.+.` l u u u Y E F G { o.} W G M 0 M b 8 & o                             ",
"                              n.n.n.n.4 6 M W W W [ [ { ) W R R R R E E E W [ { [ W M 6 5 5 5 n.n.                              ",
"                                n.n.n.n.5 M [ [ [ [ [ [ [ [ | U U U | { [ | [ [ [ [ M 5 3 1 < n.n.                              ",
"                                  n.n.n.n.n.n.n.n.n.n.n.n.n.n.n.n.n.n.n.n.n.n.n.n.n.n.n.n.n.n..                                 ",
"                                  n.n.n.n.n.n.n.n.n.n.n.n.n.n.n.n.n.n.n.n.n.n.n.n.n.n.n.n.n.n.                                  ",
"                                                                                                                                ",
"                                                                                                                                ",
"                                                                                                                                ",
"                                                                                                                                ",
"                                                                                                                                ",
"                                                                                                                                ",
"                                                                                                                                ",
"                                                                                                                                ",
"                                                                                                                                ",
"                                                                                                                                ",
"                                                                                                                                ",
"                                                                                                                                ",
"                                                                                                                                ",
"                                                                                                                                ",
"                                                                                                                                ",
"                                                                                                                                ",
"                                                                                                                                "
};
