/* XPM */
static char *result[] = {
/* columns rows colors chars-per-pixel */
"64 64 192 2 ",
"   c #15162B",
".  c #17192D",
"X  c #1A1B2E",
"o  c #211E2F",
"O  c #2B1F2F",
"+  c #221F30",
"@  c #252231",
"#  c #2C2332",
"$  c #2E2834",
"%  c #322633",
"&  c #3B2634",
"*  c #342A35",
"=  c #3D2E36",
"-  c #352F38",
";  c #37313B",
":  c #422636",
">  c #422936",
",  c #4A2B36",
"<  c #4C2B39",
"1  c #432D38",
"2  c #532D37",
"3  c #542E3B",
"4  c #433037",
"5  c #473438",
"6  c #4D353A",
"7  c #42383C",
"8  c #53363B",
"9  c #5B333D",
"0  c #543A3C",
"q  c #5D3E3E",
"w  c #622F3C",
"e  c #64333B",
"r  c #6A333C",
"t  c #633B3F",
"y  c #6B3D3E",
"u  c #79353F",
"i  c #72393D",
"p  c #7C3B3E",
"a  c #4F3F40",
"s  c #693A40",
"d  c #653440",
"f  c #753242",
"g  c #7A3543",
"h  c #7D3C45",
"j  c #4E4341",
"k  c #4D4648",
"l  c #544442",
"z  c #594D4B",
"x  c #594946",
"c  c #5A514E",
"v  c #6E4541",
"b  c #6D4944",
"n  c #6F4948",
"m  c #654845",
"M  c #734442",
"N  c #724A43",
"B  c #704A48",
"V  c #7B4746",
"C  c #6A524A",
"Z  c #785549",
"A  c #7A5F4F",
"S  c #7D6351",
"D  c #7E6857",
"F  c #71655B",
"G  c #813D3F",
"H  c #813543",
"J  c #883646",
"K  c #843C45",
"L  c #8E3844",
"P  c #8B3B48",
"I  c #923A45",
"U  c #903F4B",
"Y  c #844246",
"T  c #8B4447",
"R  c #8F4748",
"E  c #8C4E4E",
"W  c #854D47",
"Q  c #944442",
"!  c #9C4444",
"~  c #9A4B46",
"^  c #934349",
"/  c #97484A",
"(  c #994A4B",
")  c #994549",
"_  c #855247",
"`  c #885347",
"'  c #85554C",
"]  c #8A5549",
"[  c #80584F",
"{  c #95564A",
"}  c #945A4B",
"|  c #98584B",
" . c #9C524F",
".. c #9A5251",
"X. c #975852",
"o. c #995A53",
"O. c #A04643",
"+. c #A54D46",
"@. c #A34B48",
"#. c #AB5047",
"$. c #A5534A",
"%. c #AA554A",
"&. c #A65A4E",
"*. c #AC5C4D",
"=. c #B15F4D",
"-. c #A15C55",
";. c #AB5D51",
":. c #A15E5B",
">. c #806855",
",. c #8F6F57",
"<. c #816E5C",
"1. c #996652",
"2. c #86725F",
"3. c #97755A",
"4. c #99775B",
"5. c #9A795D",
"6. c #A5624F",
"7. c #AB604E",
"8. c #B2624F",
"9. c #AD6351",
"0. c #AE6A52",
"q. c #A66758",
"w. c #B36651",
"e. c #B56A52",
"r. c #B96E54",
"t. c #AE7158",
"y. c #A37A5D",
"u. c #A77A5E",
"i. c #B67055",
"p. c #BA7055",
"a. c #B6735D",
"s. c #BD745A",
"d. c #B47A5D",
"f. c #BC7A5C",
"g. c #847463",
"h. c #867866",
"j. c #9C7F63",
"k. c #B67C61",
"l. c #BA7E62",
"z. c #C07256",
"x. c #C17C5B",
"c. c #BD825E",
"v. c #A1886C",
"b. c #BD8564",
"n. c #BD8A65",
"m. c #B68A64",
"M. c #BD9167",
"N. c #A28E73",
"B. c #A69477",
"V. c #A79578",
"C. c #A99779",
"Z. c #AB9879",
"A. c #C5845F",
"S. c #C78560",
"D. c #C88560",
"F. c #C28C67",
"G. c #CA8D64",
"H. c #C48D69",
"J. c #C0876B",
"K. c #C99166",
"L. c #C49469",
"P. c #CC9569",
"I. c #C69A6D",
"U. c #CC9B6C",
"Y. c #D09F6E",
"T. c #C59B70",
"R. c #C99977",
"E. c #D1A16F",
"W. c #CBA275",
"Q. c #CDAA7D",
"!. c #D4A471",
"~. c #D5A876",
"^. c #D8A875",
"/. c #DAAC79",
"(. c #D7AA78",
"). c #DDB27F",
"_. c #D9AF85",
"`. c #CFB084",
"'. c #CFB489",
"]. c #D5B183",
"[. c #DFB682",
"{. c #DFB884",
"}. c #D3B78A",
"|. c #D8B788",
" X c #D5BA8D",
".X c #D9BB8D",
"XX c #E1BC87",
"oX c #E2BE8A",
"OX c #DCC090",
"+X c #E3C08C",
"@X c #E0C192",
"#X c None",
/* pixels */
"#X#X#X#X#X#X#X#X#X#X#X#X#X#X#X#X#X#X#X#X#X#X#X#X#X#X#X#X#X#X#X#X#X#X#X#X#X#X#X#X#X#X#X#X#X#X#X#X#X#X#X#X#X#X#X#X#X#X#X#X#X#X#X#X",
"#X#X#X#X#X#X#X#X#X#X#X#X#X#X#X#X#X#X#X#X#X#X#X#X#X#X#X#X#X#X#X#X#X#X#X#X#X#X#X#X#X#X#X#X#X#X#X#X#X#X#X#X#X#X#X#X#X#X#X#X#X#X#X#X",
"#X#X#X#X#X#X#X#X#X#X#X#X#X#X#X#X#X#X#X#X#X#X#X#X#X#X#X#X#X#X#X#X#X#X#X#X#X#X#X#X#X#X#X#X#X#X#X#X#X#X#X#X#X#X#X#X#X#X#X#X#X#X#X#X",
"#X#X#X#X#X#X#X#X#X#X#X#X#X#X#X#X#X#X#X#X#X#X#X#X#X#X#X#X#X#X#X#X#X#X#X#X#X#X#X#X#X#X#X#X#X#X#X#X#X#X#X#X#X#X#X#X#X#X#X#X#X#X#X#X",
"#X#X#X#X#X#X#X#X#X#X#X#X#X#X#X#X#X#X#X#X#X#X#X#X#X#X#X#X#X#X#X#X#X#X#X#X#X#X#X#X#X#X#X#X#X#X#X#X#X#X#X#X#X#X#X#X#X#X#X#X#X#X#X#X",
"#X#X#X#X#X#X#X#X#X#X#X#X. .       .           . .         . .                     .           .       . #X#X#X#X#X#X#X#X#X#X#X#X",
"#X#X#X#X#X#X#X#X#X#X#X#X@ @ @ @ @ @ @ @ @ @ @ @ @ @ @ @ @ @ @ @ @ @ @ @ @ @ @ @ @ @ @ @ @ @ @ @ @ @ @ @ #X#X#X#X#X#X#X#X#X#X#X#X",
"#X#X#X#X#X#X#X#X#X#X#X4 6 0 l l l l l l l l l l l l l l l l l l l l z c z l x c c c c c c c c c c c c c k #X#X#X#X#X#X#X#X#X#X#X",
"#X#X#X#X#X#X#X#X#X#X% q _ 1.3.3.4.3.3.3.3.3.3.3.3.3.4.4.3.3.4.4.3.5.v.B.v.5.v.v.C.V.V.B.B.V.B.Z.C.C.C.N.F ; #X#X#X#X#X#X#X#X#X#X",
"#X#X#X#X#X#X#X#X#XX % v 0.f.F.L.U.P.U.U.U.I.U.P.I.U.U.P.I.U.U.P.U.W.]..XQ.W.W.|.@XOXOXOXOXOX.X.X X.X@X'.g.;   #X#X#X#X#X#X#X#X#X",
"#X#X#X#X#X#X#X#X#XX * N e.z.a.l.P.!.!.!.!.!.!.!.!.!.E.!.!.E.!.!.!.^.[.XX).!./.{.oXoXoXXXoXoXoX].R.R._.].2.;   #X#X#X#X#X#X#X#X#X",
"#X#X#X#X#X#X#X#X#XX * b 0.9.( -.F.E.E.E.U.E.E.Y.Y.E.Y.E.E.E.U.U.Y.!.!.!.!.E.!.!.~.~.~.~.~.(.~.H.:.:.J.T.>.- . #X#X#X#X#X#X#X#X#X",
"#X#X#X#X#X#X#X#X#XX % v 9.&.^ ..d.P.P.P.P.P.P.P.P.P.P.P.P.P.P.P.P.P.K.P.P.P.P.P.P.P.P.P.P.P.P.d...( k.J.A * X #X#X#X#X#X#X#X#X#X",
"#X#X#X#X#X#X#X#X#XX % y $.%.$.9.f.A.D.S.S.S.A.A.A.A.A.A.A.A.A.A.A.A.A.A.A.A.A.A.A.A.A.A.A.A.A.s.;.&.r.s.Z * X #X#X#X#X#X#X#X#X#X",
"#X#X#X#X#X#X#X#X#XX # e Q %.w.e.p.p.p.i.i.i.r.i.p.p.i.p.s.r.r.r.r.r.p.s.r.p.p.p.r.p.i.i.p.p.p.r.e.e.r.0.b % X #X#X#X#X#X#X#X#X#X",
"#X#X#X#X#X#X#X#X#XX # , i T &.;.&.&.{ ] _ ` { &.&.&.&.&.&.&.&.&.-.&.&.&.&.&.&.&.| { ` _ ] | &.&.;.&.{ W 0 $ X #X#X#X#X#X#X#X#X#X",
"#X#X#X#X#X#X#X#X#Xo @ $ > e P / ^ P s 6 5 5 t K ^ ^ ^ ^ ^ ^ T ^ ^ ^ ^ T ^ ^ U ^ K e 6 5 8 s P ) ^ T s 5 % @ X #X#X#X#X#X#X#X#X#X",
"#X#X#X#X#X#X#X#X#Xo + + % 2 g P P g < # @ % < f J L J J J J J J J J J J L J J L f < % o # < f L P g 3 % @ @ + #X#X#X#X#X#X#X#X#X",
"#X#X#X#X#X#X#X#X#Xo @ & 2 i T ( ( Y < o O , r H I L L L L L L L L L L L L L L L H r , % X : u I ) T V 9 = # X #X#X#X#X#X#X#X#X#X",
"#X#X#X#X#X#X#X#X#XX # 2 G ~ ;.w.w.| 8 # , p Q I ! ! I ! I ! ! ! ! I ! ! ! I ! ! Q Q p , # , K @.*.9.6.} q % X #X#X#X#X#X#X#X#X#X",
"#X#X#X#X#X#X#X#X#XX % e @.=.p.x.x.q.m : e ~ #.+.+.+.+.+.+.+.+.+.+.+.+.+.+.+.+.+.+.#.Q w & 9 Q =.r.f.x.r.N * X #X#X#X#X#X#X#X#X#X",
"#X#X#X#X#X#X#X#X#XX % y *.s.A.K.G.d.W d K %.8.7.=.=.=.=.*.=.=.=.=.*.=.8.=.8.8.=.%.#.! u w h &.e.A.D.G.c.Z * X #X#X#X#X#X#X#X#X#X",
"#X#X#X#X#X#X#X#X#XX % v 7.A.P.U.U.F.o.K Q 8.r.e.e.e.e.e.e.e.e.e.e.e.e.e.e.8.e.e.8.#.O.L H T 7.f.G.P.E.L.A * X #X#X#X#X#X#X#X#X#X",
"#X#X#X#X#X#X#X#X#XX % v 0.A.P.!.E.F.-.U ~ e.r.r.p.r.p.r.r.e.8.8.e.r.e.8.8.8.e.r.e.%.! L L ( w.x.P.W./.W.>.;   #X#X#X#X#X#X#X#X#X",
"#X#X#X#X#X#X#X#X#XX * v 0.A.P.E.E.F.-.P ( e.p.p.r.r.r.r.r.8.%.*.8.e.8.#.#.%.7.e.8.%.O.I J ( w.f.P.!.{.`.2.; X #X#X#X#X#X#X#X#X#X",
"#X#X#X#X#X#X#X#X#XX % v e.A.P.E.E.F.-.P ( w.r.r.r.r.r.r.e.=.#.%.8.e.*.O.! O.%.8.e.%.! I J / 8.x.F.!.oX Xh.;   #X#X#X#X#X#X#X#X#X",
"#X#X#X#X#X#X#X#X#XX % v 0.A.P.E.E.F.-.P ( e.r.r.r.r.r.r.r.8.*.*.e.e.%.O.! O.%.8.8.%.! L J / 7.x.K.!.+X.Xh.;   #X#X#X#X#X#X#X#X#X",
"#X#X#X#X#X#X#X#X#XX * v 0.A.P.E.E.F.o.P ( w.p.r.r.r.r.r.r.e.w.e.r.8.%.O.O.O.%.e.e.%.! L J / w.x.P.~.oX Xh.;   #X#X#X#X#X#X#X#X#X",
"#X#X#X#X#X#X#X#X#XX % v 0.A.P.W.E.F.o.P ( e.r.r.r.r.r.r.r.r.r.r.r.8.*.#.O.+.*.8.w.%.O.L J / w.x.G.~.oX Xh.;   #X#X#X#X#X#X#X#X#X",
"#X#X#X#X#X#X#X#X#XX % v 0.A.P.E.E.F.-.P ( w.p.r.r.r.r.r.r.r.r.r.r.e.8.=.*.=.8.e.8.%.O.L J / 9.x.G.!..X Xh.;   #X#X#X#X#X#X#X#X#X",
"#X#X#X#X#X#X#X#X#XX % v e.A.P.E.E.H.-.P ( w.r.r.r.r.r.r.r.r.r.r.r.r.r.e.e.e.r.r.w.%.! L J / 9.x.P.~.+X Xh.;   #X#X#X#X#X#X#X#X#X",
"#X#X#X#X#X#X#X#X#XX * v 0.A.P.!.E.F.-.P ( e.r.r.r.r.r.r.r.r.r.e.r.r.r.r.r.r.r.r.w.%.! L J / w.f.G.!.+X Xh.; X #X#X#X#X#X#X#X#X#X",
"#X#X#X#X#X#X#X#X#XX % v e.A.I.E.E.F.-.P ( w.r.r.r.r.r.r.r.r.r.r.r.r.r.r.r.r.r.r.8.%.O.L J ( 9.x.K.!.+X Xh.;   #X#X#X#X#X#X#X#X#X",
"#X#X#X#X#X#X#X#X#XX % v 0.A.P.E.E.F.-.P ( e.r.r.r.r.r.r.r.r.r.r.r.r.r.r.e.e.r.r.8.%.! I J / w.x.K.!.oX Xh.;   #X#X#X#X#X#X#X#X#X",
"#X#X#X#X#X#X#X#X#XX % v 0.A.P.E.E.F.:.P ( e.r.r.r.r.r.r.r.r.r.r.r.r.r.r.8.8.8.e.e.%.! L J / 7.x.K.!.).Q.<.- . #X#X#X#X#X#X#X#X#X",
"#X#X#X#X#X#X#X#X#XX % b e.A.P.E.!.F.o.P ( w.r.r.r.r.r.r.r.r.r.r.r.r.r.r.8.#.%.8.8.%.! L J / w.x.L.!.!.I.S - . #X#X#X#X#X#X#X#X#X",
"#X#X#X#X#X#X#X#X#XX * b 0.A.P.E.Y.F.o.P ( w.s.r.r.r.r.r.r.r.r.r.r.r.r.e.*.+.%.w.w.%.O.L J ( w.x.G.Y.~.T.S - . #X#X#X#X#X#X#X#X#X",
"#X#X#X#X#X#X#X#X#XX % v 0.A.P.E.E.F.-.P ( w.r.r.r.r.r.r.r.r.r.r.r.r.r.r.8.8.8.e.w.%.! I J / 9.x.L.!./.`.<.- . #X#X#X#X#X#X#X#X#X",
"#X#X#X#X#X#X#X#X#XX % v 0.A.P.E.E.F.-.P ( w.r.r.r.r.r.r.r.r.r.r.r.r.r.r.e.r.r.e.w.%.! L J / 9.x.G.!.oX}.h.;   #X#X#X#X#X#X#X#X#X",
"#X#X#X#X#X#X#X#X#XX % v i.A.P.E.E.H.-.P ( w.r.r.r.r.r.r.r.r.r.r.r.r.r.r.r.r.r.r.w.%.O.L J / w.x.K.!.{.`.2.-   #X#X#X#X#X#X#X#X#X",
"#X#X#X#X#X#X#X#X#XX * v 0.A.P.E.E.H.:.P ( w.p.r.r.r.r.r.r.r.r.r.r.e.r.r.r.r.r.r.w.%.O.I J ( w.x.P.E./.W.D * X #X#X#X#X#X#X#X#X#X",
"#X#X#X#X#X#X#X#X#XX % v e.A.P.E.Y.F.o.K ( w.s.r.r.r.r.r.r.r.r.r.r.r.r.r.r.r.r.r.w.%.! L H ^ 9.f.P.E.E.L.S * X #X#X#X#X#X#X#X#X#X",
"#X#X#X#X#X#X#X#X#XX % b e.D.U.!.!.n.' d Y e.z.r.r.r.r.r.r.s.r.r.r.r.r.r.r.s.r.r.w.%.! u w V 9.x.P.Y.!.P.S *   #X#X#X#X#X#X#X#X#X",
"#X#X#X#X#X#X#X#X#XX % n 0.S.P.!.!.m.C 1 v 7.z.r.r.r.r.r.r.r.r.r.r.r.r.r.r.r.r.r.e.#.Q w = s 6.x.K.Y.^.L.S * X #X#X#X#X#X#X#X#X#X",
"#X#X#X#X#X#X#X#X#XX $ d } t.b.H.H.y.x # 0 ] 6.7.9.9.9.9.9.9.9.9.8.7.9.9.9.9.9.9.*.~ p : # 8 { a.c.n.n.y.C $ X #X#X#X#X#X#X#X#X#X",
"#X#X#X#X#X#X#X#X#Xo @ = d V X.:.q.E 5 @ # 0 M R ) ) ) ( ( / ( / ~ ~ / ( ) ) ( ( T r , O o , K $.-.o.Z C 7 @ X #X#X#X#X#X#X#X#X#X",
"#X#X#X#X#X#X#X#X#Xo + @ * 8 K U U g < # @ * 2 g P P P K P P P P P K P K P P P P u < % @ # < g U P K 9 ; # @ o #X#X#X#X#X#X#X#X#X",
"#X#X#X#X#X#X#X#X#Xo @ * 5 v E ..$.E n l j l m E ................ ...............E b l j l B E ....] n a ; @ o #X#X#X#X#X#X#X#X#X",
"#X#X#X#X#X#X#X#X#XX # 0 _ 1.d.b.l.k.y.4.3.3.y.k.k.k.l.k.k.k.l.d.k.k.l.k.k.l.k.l.d.y.4.4.4.y.k.l.l.k.u.,.x % X #X#X#X#X#X#X#X#X#X",
"#X#X#X#X#X#X#X#X#XX $ v 7.f.F.P.U.P.U.U.U.U.U.P.U.U.P.U.U.U.U.U.U.U.U.U.U.U.P.U.U.U.P.P.I.I.U.P.P.I.U.M.A * X #X#X#X#X#X#X#X#X#X",
"#X#X#X#X#X#X#X#X#XX * N e.s.a.k.L.E.!.!.!.!.!.E.!.E.!.!.E.!.!.E.E.!.E.E.!.E.E.!.!.E.!.^.!.!.!.P.l.k.P.P.>.* . #X#X#X#X#X#X#X#X#X",
"#X#X#X#X#X#X#X#X#XX * N 0.9.( -.F.E.E.E.U.E.Y.Y.E.U.E.E.U.E.E.E.E.E.E.U.E.E.Y.E.E.E.Y.Y.E.E.Y.b.:...l.L.>.*   #X#X#X#X#X#X#X#X#X",
"#X#X#X#X#X#X#X#X#XX % v 6.%.^ -.l.P.P.P.P.P.P.P.P.P.P.P.P.P.P.P.P.P.P.P.P.P.P.P.P.P.P.P.P.U.P.l...( k.b.A * X #X#X#X#X#X#X#X#X#X",
"#X#X#X#X#X#X#X#X#XX % y $.*.%.;.f.S.D.D.D.D.S.S.A.A.D.A.D.A.D.D.A.A.A.A.D.D.A.D.A.A.D.A.S.S.D.f.;.;.z.k.Z * X #X#X#X#X#X#X#X#X#X",
"#X#X#X#X#X#X#X#X#XX % w ~ %.;.e.r.r.i.i.i.i.r.i.i.i.i.i.p.i.i.i.i.i.p.p.i.i.i.i.i.i.p.i.i.i.e.r.e.w.p.0.N % X #X#X#X#X#X#X#X#X#X",
"#X#X#X#X#X#X#X#X#X#X# 2 i Y ` ' ] ` ` ` ` ` ` ` ` ` ` ` ` ` ` ` ` ` ` ` ` ` ` ` ` ` ` ` ` ` ` ` ' ] ] _ q % #X#X#X#X#X#X#X#X#X#X",
"#X#X#X#X#X#X#X#X#X#X#X& , , 6 6 6 6 6 6 6 6 6 6 6 6 6 6 6 6 6 6 6 6 6 6 6 6 6 6 6 6 6 6 6 6 6 6 6 6 6 6 4 #X#X#X#X#X#X#X#X#X#X#X",
"#X#X#X#X#X#X#X#X#X#X#X#X@ o @ @ @ @ @ @ + @ @ @ @ @ @ @ @ @ @ @ @ @ @ @ @ @ @ @ @ @ @ @ @ @ @ @ @ @ @ @ #X#X#X#X#X#X#X#X#X#X#X#X",
"#X#X#X#X#X#X#X#X#X#X#X#XX X X X . . . . X . . . . . . . . . . . X . . . . . . . . . . . . . . . X . . . #X#X#X#X#X#X#X#X#X#X#X#X",
"#X#X#X#X#X#X#X#X#X#X#X#X#X#X#X#X#X#X#X#X#X#X#X#X#X#X#X#X#X#X#X#X#X#X#X#X#X#X#X#X#X#X#X#X#X#X#X#X#X#X#X#X#X#X#X#X#X#X#X#X#X#X#X#X",
"#X#X#X#X#X#X#X#X#X#X#X#X#X#X#X#X#X#X#X#X#X#X#X#X#X#X#X#X#X#X#X#X#X#X#X#X#X#X#X#X#X#X#X#X#X#X#X#X#X#X#X#X#X#X#X#X#X#X#X#X#X#X#X#X",
"#X#X#X#X#X#X#X#X#X#X#X#X#X#X#X#X#X#X#X#X#X#X#X#X#X#X#X#X#X#X#X#X#X#X#X#X#X#X#X#X#X#X#X#X#X#X#X#X#X#X#X#X#X#X#X#X#X#X#X#X#X#X#X#X",
"#X#X#X#X#X#X#X#X#X#X#X#X#X#X#X#X#X#X#X#X#X#X#X#X#X#X#X#X#X#X#X#X#X#X#X#X#X#X#X#X#X#X#X#X#X#X#X#X#X#X#X#X#X#X#X#X#X#X#X#X#X#X#X#X",
"#X#X#X#X#X#X#X#X#X#X#X#X#X#X#X#X#X#X#X#X#X#X#X#X#X#X#X#X#X#X#X#X#X#X#X#X#X#X#X#X#X#X#X#X#X#X#X#X#X#X#X#X#X#X#X#X#X#X#X#X#X#X#X#X"
};
